<svg width="150" height="50" viewBox="0 0 150 50" fill="none" xmlns="http://www.w3.org/2000/svg">
<g clip-path="url(#clip0_148_920)">
<path d="M138.055 0.0001625H11.9518C11.4921 0.0001625 11.038 0.0001625 10.5796 0.0026625C10.1958 0.0051625 9.81509 0.012425 9.42764 0.0185375C8.58593 0.0284148 7.74619 0.102258 6.91573 0.239425C6.08644 0.379578 5.28313 0.643807 4.53296 1.02318C3.78372 1.40575 3.09911 1.90287 2.50397 2.4965C1.90571 3.08846 1.40702 3.77268 1.02706 4.52286C0.646059 5.27155 0.38187 6.07384 0.243619 6.90201C0.104055 7.72914 0.028954 8.56581 0.0189907 9.40451C0.0073581 9.78776 0.00612966 10.1723 0 10.5556V39.4484C0.00612966 39.8365 0.0073581 40.2125 0.0189907 40.6008C0.0289571 41.4394 0.104058 42.2761 0.243619 43.1032C0.381488 43.9318 0.645693 44.7346 1.02706 45.4835C1.40685 46.2313 1.90561 46.9127 2.50397 47.5014C3.09685 48.0977 3.7819 48.5951 4.53296 48.9748C5.28312 49.3552 6.08635 49.621 6.91573 49.7633C7.74633 49.8994 8.58598 49.9732 9.42764 49.9843C9.81509 49.9928 10.1958 49.9977 10.5796 49.9977C11.038 50.0002 11.4922 50.0002 11.9518 50.0002H138.055C138.505 50.0002 138.963 50.0002 139.414 49.9977C139.796 49.9977 140.187 49.9928 140.569 49.9843C141.409 49.9738 142.247 49.8999 143.076 49.7633C143.908 49.62 144.715 49.3542 145.468 48.9748C146.219 48.5949 146.903 48.0975 147.495 47.5014C148.092 46.9104 148.592 46.2295 148.977 45.4835C149.355 44.734 149.617 43.9313 149.753 43.1032C149.892 42.276 149.97 41.4395 149.985 40.6008C149.99 40.2125 149.99 39.8365 149.99 39.4484C150 38.9943 150 38.5427 150 38.0812V11.9203C150 11.4626 150 11.0085 149.99 10.5556C149.99 10.1723 149.99 9.78776 149.985 9.40446C149.97 8.56569 149.892 7.72921 149.753 6.90196C149.616 6.07426 149.355 5.27204 148.977 4.52281C148.203 3.01916 146.976 1.79519 145.468 1.02306C144.715 0.644622 143.908 0.380463 143.076 0.239312C142.248 0.101541 141.409 0.0276722 140.569 0.0183625C140.187 0.0122625 139.796 0.0049375 139.414 0.0025C138.963 0 138.505 0 138.055 0V0.0001625Z" fill="#A6A6A6"/>
<path d="M10.5856 48.9062C10.2037 48.9062 9.83097 48.9014 9.45205 48.8929C8.66708 48.8827 7.88394 48.8145 7.10906 48.689C6.38653 48.5649 5.68659 48.3341 5.03233 48.0041C4.38406 47.6769 3.7928 47.2478 3.28117 46.7334C2.76215 46.225 2.33003 45.6353 2.00195 44.9878C1.67026 44.336 1.44071 43.6374 1.3213 42.9163C1.19234 42.1414 1.12257 41.3579 1.11259 40.5725C1.10464 40.3089 1.09424 39.4311 1.09424 39.4311V10.5554C1.09424 10.5554 1.10532 9.69116 1.11265 9.43725C1.12221 8.6531 1.19158 7.87082 1.32015 7.09716C1.43978 6.37406 1.66951 5.67344 2.00138 5.01954C2.32825 4.37243 2.75796 3.78233 3.27387 3.2721C3.78919 2.75703 4.38235 2.32576 5.03171 1.99401C5.68447 1.66512 6.38309 1.43592 7.10416 1.31409C7.88159 1.1873 8.66744 1.11875 9.45513 1.10901L10.5862 1.09375H139.408L140.552 1.10963C141.333 1.11887 142.111 1.18681 142.882 1.31286C143.61 1.43622 144.316 1.66702 144.976 1.99768C146.277 2.66623 147.336 3.72395 148.003 5.02259C148.33 5.67197 148.556 6.36688 148.674 7.08374C148.804 7.86374 148.877 8.65217 148.892 9.44275C148.896 9.79675 148.896 10.177 148.896 10.5554C148.906 11.0242 148.906 11.4703 148.906 11.9202V38.081C148.906 38.5351 148.906 38.9783 148.896 39.425C148.896 39.8315 148.896 40.2039 148.891 40.5871C148.876 41.3636 148.805 42.138 148.677 42.904C148.56 43.6303 148.331 44.3344 148 44.9915C147.669 45.632 147.24 46.2166 146.727 46.7236C146.215 47.2409 145.622 47.6724 144.972 48.0018C144.314 48.3342 143.609 48.5659 142.882 48.689C142.107 48.8152 141.324 48.8834 140.539 48.8929C140.171 48.9014 139.787 48.9062 139.414 48.9062L138.055 48.9087L10.5856 48.9062Z" fill="black"/>
<path d="M31.0481 25.3749C31.0616 24.3316 31.3395 23.3086 31.8559 22.4012C32.3724 21.4937 33.1107 20.7313 34.002 20.1848C33.4358 19.3784 32.6888 18.7147 31.8203 18.2465C30.9518 17.7783 29.9859 17.5185 28.9991 17.4877C26.8941 17.2674 24.8535 18.7438 23.7809 18.7438C22.6875 18.7438 21.036 17.5096 19.2576 17.5461C18.1073 17.5832 16.9862 17.9167 16.0036 18.5143C15.021 19.1119 14.2104 19.9531 13.6507 20.9559C11.2264 25.1415 13.0347 31.2928 15.357 34.676C16.5189 36.3327 17.8768 38.1833 19.6536 38.1177C21.3923 38.0458 22.0416 37.0121 24.1404 37.0121C26.2196 37.0121 26.8289 38.1177 28.6417 38.0759C30.5074 38.0457 31.6829 36.4119 32.804 34.7395C33.6388 33.5591 34.2812 32.2544 34.7074 30.8739C33.6234 30.4167 32.6985 29.6515 32.0477 28.6736C31.397 27.6958 31.0493 26.5485 31.0481 25.3749Z" fill="white"/>
<path d="M27.6238 15.2637C28.641 14.0459 29.1422 12.4807 29.0208 10.9004C27.4667 11.0632 26.0311 11.8039 25.0001 12.9749C24.496 13.547 24.11 14.2125 23.864 14.9335C23.618 15.6545 23.5169 16.4167 23.5665 17.1766C24.3438 17.1846 25.1129 17.0166 25.8156 16.6852C26.5184 16.3539 27.1367 15.8678 27.6238 15.2637Z" fill="white"/>
<path d="M53.0262 33.9246H47.0928L45.6679 38.1201H43.1548L48.7748 22.5977H51.3858L57.0058 38.1201H54.4498L53.0262 33.9246ZM47.7073 31.9886H52.4105L50.092 25.1795H50.0271L47.7073 31.9886Z" fill="white"/>
<path d="M69.143 32.4623C69.143 35.9792 67.2554 38.2387 64.4068 38.2387C63.6853 38.2763 62.9676 38.1106 62.3361 37.7604C61.7046 37.4102 61.1847 36.8898 60.8361 36.2587H60.7822V41.8641H58.4526V26.8031H60.7075V28.6854H60.7504C61.1151 28.0574 61.6437 27.5396 62.28 27.1873C62.9164 26.835 63.6366 26.6613 64.364 26.6847C67.2443 26.6847 69.143 28.9552 69.143 32.4623ZM66.7486 32.4623C66.7486 30.1711 65.5612 28.6647 63.7495 28.6647C61.9696 28.6647 60.7724 30.2028 60.7724 32.4623C60.7724 34.7426 61.9696 36.2697 63.7495 36.2697C65.5612 36.2697 66.7486 34.7743 66.7486 32.4623Z" fill="white"/>
<path d="M81.6342 32.4623C81.6342 35.9791 79.7466 38.2387 76.898 38.2387C76.1765 38.2763 75.4588 38.1105 74.8273 37.7604C74.1958 37.4102 73.676 36.8898 73.3273 36.2587H73.2734V41.8641H70.9438V26.8031H73.1987V28.6854H73.2415C73.6062 28.0573 74.1349 27.5396 74.7712 27.1873C75.4075 26.835 76.1277 26.6613 76.8552 26.6847C79.7356 26.6847 81.6342 28.9552 81.6342 32.4623ZM79.2398 32.4623C79.2398 30.171 78.0524 28.6647 76.2407 28.6647C74.4608 28.6647 73.2636 30.2028 73.2636 32.4623C73.2636 34.7426 74.4608 36.2697 76.2407 36.2697C78.0524 36.2697 79.2398 34.7743 79.2398 32.4623H79.2398Z" fill="white"/>
<path d="M89.8895 33.7952C90.0621 35.3345 91.5617 36.3452 93.6109 36.3452C95.5744 36.3452 96.987 35.3345 96.987 33.9465C96.987 32.7417 96.135 32.0203 94.1177 31.5259L92.1003 31.0413C89.242 30.3528 87.915 29.0198 87.915 26.8567C87.915 24.1785 90.2555 22.3389 93.579 22.3389C96.8683 22.3389 99.1231 24.1785 99.199 26.8567H96.8474C96.7067 25.3076 95.4226 24.3726 93.546 24.3726C91.6694 24.3726 90.3853 25.3186 90.3853 26.6956C90.3853 27.793 91.2054 28.4387 93.2118 28.9331L94.9268 29.353C98.1205 30.1062 99.4475 31.3855 99.4475 33.656C99.4475 36.56 97.1278 38.3789 93.4382 38.3789C89.9862 38.3789 87.6555 36.6027 87.5049 33.7951L89.8895 33.7952Z" fill="white"/>
<path d="M104.475 24.126V26.8042H106.633V28.6438H104.475V34.8828C104.475 35.8521 104.907 36.3037 105.856 36.3037C106.112 36.2993 106.368 36.2813 106.622 36.25V38.0786C106.196 38.1581 105.762 38.1941 105.328 38.186C103.031 38.186 102.135 37.3254 102.135 35.1306V28.6438H100.484V26.8042H102.134V24.126H104.475Z" fill="white"/>
<path d="M107.883 32.4634C107.883 28.9026 109.986 26.665 113.265 26.665C116.556 26.665 118.649 28.9025 118.649 32.4634C118.649 36.0339 116.567 38.2617 113.265 38.2617C109.965 38.2617 107.883 36.0339 107.883 32.4634ZM116.275 32.4634C116.275 30.0208 115.153 28.5791 113.265 28.5791C111.378 28.5791 110.256 30.0317 110.256 32.4634C110.256 34.9158 111.378 36.3464 113.265 36.3464C115.153 36.3464 116.275 34.9158 116.275 32.4634H116.275Z" fill="white"/>
<path d="M120.57 26.803H122.792V28.7293H122.846C122.996 28.1277 123.349 27.596 123.846 27.2236C124.344 26.8513 124.954 26.6609 125.575 26.6846C125.844 26.6836 126.112 26.7127 126.373 26.7713V28.9441C126.035 28.8408 125.681 28.7934 125.327 28.8037C124.988 28.79 124.651 28.8495 124.338 28.9782C124.025 29.1068 123.743 29.3014 123.512 29.5488C123.282 29.7962 123.108 30.0904 123.002 30.4112C122.896 30.732 122.861 31.0719 122.899 31.4075V38.1201H120.57L120.57 26.803Z" fill="white"/>
<path d="M137.114 34.7974C136.801 36.8518 134.794 38.2617 132.227 38.2617C128.926 38.2617 126.876 36.0559 126.876 32.5171C126.876 28.9673 128.937 26.665 132.129 26.665C135.269 26.665 137.244 28.8159 137.244 32.2473V33.0432H129.228V33.1836C129.191 33.6001 129.243 34.0197 129.381 34.4145C129.52 34.8093 129.74 35.1703 130.029 35.4734C130.318 35.7766 130.668 36.0151 131.056 36.173C131.444 36.3308 131.862 36.4045 132.281 36.3891C132.832 36.4406 133.384 36.3134 133.856 36.0266C134.328 35.7398 134.695 35.3087 134.902 34.7974L137.114 34.7974ZM129.239 31.4197H134.913C134.934 31.0452 134.877 30.6704 134.746 30.3189C134.614 29.9674 134.412 29.6467 134.15 29.377C133.889 29.1073 133.575 28.8944 133.227 28.7516C132.879 28.6088 132.505 28.5393 132.129 28.5474C131.75 28.5451 131.374 28.6178 131.023 28.7612C130.672 28.9046 130.353 29.116 130.084 29.383C129.815 29.6501 129.602 29.9675 129.457 30.3171C129.312 30.6667 129.238 31.0414 129.239 31.4197V31.4197Z" fill="white"/>
<path d="M47.4155 10.9137C47.9039 10.8788 48.394 10.9524 48.8504 11.1292C49.3068 11.3059 49.7182 11.5815 50.0549 11.9361C50.3915 12.2906 50.6451 12.7152 50.7973 13.1793C50.9495 13.6434 50.9965 14.1354 50.9349 14.6198C50.9349 17.0026 49.6434 18.3723 47.4155 18.3723H44.7139V10.9137H47.4155ZM45.8756 17.3175H47.2858C47.6347 17.3383 47.984 17.2812 48.3081 17.1505C48.6321 17.0197 48.9229 16.8185 49.1592 16.5616C49.3955 16.3046 49.5713 15.9983 49.6739 15.6651C49.7765 15.3318 49.8033 14.9799 49.7524 14.635C49.7996 14.2914 49.7701 13.9417 49.6659 13.6109C49.5617 13.2801 49.3855 12.9763 49.1497 12.7214C48.914 12.4665 48.6246 12.2667 48.3024 12.1364C47.9801 12.0061 47.633 11.9485 47.2858 11.9677H45.8756V17.3175Z" fill="white"/>
<path d="M52.2475 15.5567C52.212 15.1868 52.2544 14.8136 52.372 14.461C52.4897 14.1084 52.6799 13.7842 52.9305 13.5093C53.1811 13.2343 53.4866 13.0146 53.8274 12.8642C54.1682 12.7139 54.5367 12.6362 54.9093 12.6362C55.282 12.6362 55.6505 12.7139 55.9912 12.8642C56.332 13.0146 56.6375 13.2343 56.8881 13.5093C57.1388 13.7842 57.329 14.1084 57.4466 14.461C57.5643 14.8136 57.6067 15.1868 57.5712 15.5567C57.6074 15.927 57.5654 16.3007 57.4481 16.6539C57.3308 17.007 57.1407 17.3318 56.89 17.6073C56.6393 17.8828 56.3336 18.103 55.9925 18.2537C55.6513 18.4043 55.2824 18.4822 54.9093 18.4822C54.5363 18.4822 54.1673 18.4043 53.8262 18.2537C53.4851 18.103 53.1794 17.8828 52.9287 17.6073C52.678 17.3318 52.4879 17.007 52.3705 16.6539C52.2532 16.3007 52.2113 15.927 52.2475 15.5567ZM56.4254 15.5567C56.4254 14.3366 55.8758 13.6231 54.9112 13.6231C53.9429 13.6231 53.3982 14.3366 53.3982 15.5567C53.3982 16.7866 53.9429 17.4946 54.9112 17.4946C55.8758 17.4946 56.4254 16.7817 56.4254 15.5567H56.4254Z" fill="white"/>
<path d="M64.6474 18.3723H63.4919L62.3253 14.2268H62.2371L61.0754 18.3723H59.9309L58.375 12.7437H59.5049L60.516 17.0386H60.5993L61.7597 12.7437H62.8284L63.9889 17.0386H64.077L65.0832 12.7437H66.1972L64.6474 18.3723Z" fill="white"/>
<path d="M67.5059 12.7436H68.5782V13.6377H68.6614C68.8027 13.3166 69.0408 13.0474 69.3428 12.8676C69.6447 12.6879 69.9953 12.6065 70.3458 12.6349C70.6205 12.6143 70.8963 12.6556 71.1527 12.7558C71.4092 12.8559 71.6398 13.0123 71.8274 13.2133C72.015 13.4144 72.1549 13.6549 72.2366 13.9172C72.3184 14.1795 72.3399 14.4567 72.2995 14.7284V18.3722H71.1856V15.0074C71.1856 14.1028 70.7914 13.653 69.9676 13.653C69.7811 13.6444 69.595 13.676 69.4219 13.7458C69.2489 13.8156 69.093 13.9219 68.965 14.0573C68.837 14.1928 68.7398 14.3543 68.6803 14.5307C68.6207 14.7071 68.6001 14.8943 68.6198 15.0794V18.3723H67.5059L67.5059 12.7436Z" fill="white"/>
<path d="M74.0747 10.5464H75.1887V18.3723H74.0747V10.5464Z" fill="white"/>
<path d="M76.7372 15.5544C76.7017 15.1844 76.7442 14.8112 76.8618 14.4586C76.9795 14.106 77.1697 13.7818 77.4204 13.5068C77.6711 13.2319 77.9766 13.0121 78.3174 12.8618C78.6582 12.7115 79.0267 12.6338 79.3993 12.6338C79.772 12.6338 80.1405 12.7115 80.4813 12.8618C80.8221 13.0121 81.1276 13.2319 81.3783 13.5068C81.6289 13.7818 81.8192 14.106 81.9369 14.4586C82.0545 14.8112 82.097 15.1844 82.0615 15.5544C82.0976 15.9247 82.0557 16.2984 81.9383 16.6515C81.821 17.0047 81.6308 17.3295 81.3801 17.605C81.1294 17.8805 80.8236 18.1006 80.4825 18.2513C80.1414 18.402 79.7724 18.4798 79.3993 18.4798C79.0263 18.4798 78.6573 18.402 78.3162 18.2513C77.9751 18.1006 77.6693 17.8805 77.4186 17.605C77.1679 17.3295 76.9777 17.0047 76.8604 16.6515C76.743 16.2984 76.7011 15.9247 76.7372 15.5544ZM80.9151 15.5544C80.9151 14.3343 80.3655 13.6208 79.4009 13.6208C78.4326 13.6208 77.8879 14.3343 77.8879 15.5544C77.8879 16.7842 78.4326 17.4922 79.4009 17.4922C80.3655 17.4922 80.9151 16.7793 80.9151 15.5544H80.9151Z" fill="white"/>
<path d="M83.2344 16.7817C83.2344 15.7685 83.9909 15.1844 85.3338 15.1014L86.8627 15.0135V14.5277C86.8627 13.9332 86.4685 13.5975 85.7071 13.5975C85.0853 13.5975 84.6544 13.8252 84.5307 14.2231H83.4523C83.5661 13.2563 84.4781 12.6362 85.7585 12.6362C87.1736 12.6362 87.9718 13.3387 87.9718 14.5277V18.3735H86.8994V17.5825H86.8113C86.6324 17.8663 86.3812 18.0976 86.0833 18.2528C85.7855 18.4081 85.4516 18.4818 85.1159 18.4663C84.8789 18.4909 84.6394 18.4656 84.4128 18.3923C84.1862 18.3189 83.9776 18.199 83.8003 18.0403C83.6231 17.8816 83.4811 17.6876 83.3836 17.4708C83.2862 17.254 83.2353 17.0193 83.2344 16.7817ZM86.8627 16.3008V15.8302L85.4843 15.9181C84.707 15.97 84.3544 16.2336 84.3544 16.7298C84.3544 17.2364 84.7951 17.5312 85.4011 17.5312C85.5787 17.5492 85.758 17.5313 85.9285 17.4787C86.099 17.4261 86.2571 17.3398 86.3935 17.225C86.5299 17.1102 86.6417 16.9692 86.7223 16.8104C86.8029 16.6516 86.8506 16.4783 86.8627 16.3008Z" fill="white"/>
<path d="M89.4355 15.5556C89.4355 13.777 90.3524 12.6503 91.7785 12.6503C92.1313 12.6341 92.4814 12.7183 92.7879 12.8932C93.0944 13.0681 93.3447 13.3263 93.5095 13.6378H93.5927V10.5464H94.7067V18.3723H93.6392V17.483H93.5511C93.3736 17.7924 93.1146 18.0474 92.8022 18.2205C92.4897 18.3936 92.1357 18.4782 91.7785 18.4651C90.3426 18.4651 89.4355 17.3384 89.4355 15.5556ZM90.5863 15.5556C90.5863 16.7494 91.1506 17.4678 92.0944 17.4678C93.0333 17.4678 93.6136 16.7391 93.6136 15.5605C93.6136 14.3873 93.0272 13.6482 92.0944 13.6482C91.1567 13.6482 90.5862 14.3715 90.5862 15.5556H90.5863Z" fill="white"/>
<path d="M99.3158 15.5567C99.2803 15.1868 99.3228 14.8136 99.4404 14.461C99.558 14.1084 99.7483 13.7842 99.9989 13.5093C100.25 13.2343 100.555 13.0146 100.896 12.8642C101.237 12.7139 101.605 12.6362 101.978 12.6362C102.35 12.6362 102.719 12.7139 103.06 12.8642C103.4 13.0146 103.706 13.2343 103.956 13.5093C104.207 13.7842 104.397 14.1084 104.515 14.461C104.633 14.8136 104.675 15.1868 104.64 15.5567C104.676 15.927 104.634 16.3007 104.516 16.6539C104.399 17.007 104.209 17.3318 103.958 17.6073C103.708 17.8828 103.402 18.103 103.061 18.2537C102.72 18.4043 102.351 18.4822 101.978 18.4822C101.605 18.4822 101.236 18.4043 100.895 18.2537C100.553 18.103 100.248 17.8828 99.997 17.6073C99.7463 17.3318 99.5562 17.007 99.4389 16.6539C99.3216 16.3007 99.2797 15.927 99.3158 15.5567ZM103.494 15.5567C103.494 14.3366 102.944 13.6231 101.98 13.6231C101.011 13.6231 100.467 14.3366 100.467 15.5567C100.467 16.7866 101.011 17.4946 101.98 17.4946C102.944 17.4946 103.494 16.7817 103.494 15.5567Z" fill="white"/>
<path d="M106.134 12.7436H107.206V13.6377H107.289C107.431 13.3166 107.669 13.0474 107.971 12.8676C108.273 12.6879 108.623 12.6065 108.974 12.6349C109.248 12.6143 109.524 12.6556 109.781 12.7558C110.037 12.8559 110.268 13.0123 110.455 13.2133C110.643 13.4144 110.783 13.6549 110.865 13.9172C110.946 14.1795 110.968 14.4567 110.927 14.7284V18.3722H109.814V15.0074C109.814 14.1028 109.419 13.653 108.596 13.653C108.409 13.6444 108.223 13.676 108.05 13.7458C107.877 13.8156 107.721 13.9219 107.593 14.0573C107.465 14.1928 107.368 14.3543 107.308 14.5307C107.249 14.7071 107.228 14.8943 107.248 15.0794V18.3723H106.134V12.7436Z" fill="white"/>
<path d="M117.222 11.3423V12.7693H118.445V13.705H117.222V16.5992C117.222 17.1888 117.466 17.447 118.02 17.447C118.162 17.4466 118.304 17.438 118.445 17.4214V18.3467C118.245 18.3824 118.042 18.4013 117.839 18.4034C116.6 18.4034 116.107 17.9689 116.107 16.8837V13.7049H115.211V12.7692H116.107V11.3423H117.222Z" fill="white"/>
<path d="M119.967 10.5464H121.071V13.6482H121.159C121.307 13.324 121.552 13.0533 121.86 12.8729C122.168 12.6924 122.524 12.6111 122.88 12.6399C123.153 12.6251 123.426 12.6706 123.68 12.7731C123.934 12.8757 124.161 13.0328 124.347 13.2332C124.533 13.4336 124.672 13.6724 124.754 13.9326C124.837 14.1928 124.86 14.4679 124.824 14.7383V18.3723H123.709V15.0123C123.709 14.1133 123.289 13.6579 122.502 13.6579C122.311 13.6423 122.118 13.6685 121.938 13.7349C121.758 13.8012 121.594 13.906 121.459 14.0419C121.323 14.1778 121.219 14.3416 121.154 14.5217C121.089 14.7019 121.064 14.8941 121.081 15.0849V18.3723H119.967L119.967 10.5464Z" fill="white"/>
<path d="M131.319 16.8514C131.168 17.3658 130.84 17.8108 130.393 18.1085C129.945 18.4062 129.408 18.5376 128.873 18.4798C128.501 18.4896 128.132 18.4186 127.79 18.2717C127.449 18.1248 127.143 17.9055 126.895 17.6291C126.647 17.3526 126.462 17.0257 126.354 16.6709C126.245 16.3161 126.215 15.942 126.266 15.5746C126.216 15.206 126.247 14.831 126.355 14.4752C126.464 14.1194 126.647 13.7909 126.894 13.5121C127.141 13.2332 127.445 13.0105 127.785 12.859C128.126 12.7075 128.495 12.6307 128.868 12.6339C130.439 12.6339 131.386 13.7039 131.386 15.4714V15.859H127.401V15.9212C127.383 16.1278 127.409 16.3357 127.477 16.5317C127.545 16.7276 127.653 16.9072 127.794 17.059C127.936 17.2109 128.108 17.3315 128.299 17.4133C128.49 17.495 128.696 17.536 128.904 17.5337C129.17 17.5656 129.44 17.5178 129.679 17.3963C129.918 17.2748 130.116 17.0851 130.247 16.8514L131.319 16.8514ZM127.401 15.0374H130.252C130.266 14.8485 130.24 14.6588 130.176 14.4804C130.112 14.302 130.011 14.1389 129.881 14.0016C129.75 13.8642 129.592 13.7557 129.416 13.683C129.241 13.6103 129.052 13.575 128.862 13.5793C128.669 13.5769 128.478 13.613 128.3 13.6854C128.121 13.7578 127.959 13.8652 127.823 14.0011C127.687 14.1369 127.579 14.2987 127.507 14.4767C127.434 14.6546 127.398 14.8453 127.401 15.0374H127.401Z" fill="white"/>
</g>
<defs>
<clipPath id="clip0_148_920">
<rect width="150" height="50" fill="white"/>
</clipPath>
</defs>
</svg>
