<svg width="24" height="24" viewBox="0 0 24 24" fill="none" xmlns="http://www.w3.org/2000/svg">
<path d="M12 0C18.6269 0 24 5.373 24 12C24 18.6271 18.627 24 12 24C5.37308 24 0 18.627 0 12C0 5.37308 5.37225 0 12 0Z" fill="#FF9900"/>
<path d="M17.9669 10.9838L17.865 10.7752L17.6962 10.6433C17.475 10.4707 16.356 10.6553 16.0545 10.3815C15.8407 10.1858 15.807 9.83252 15.7425 9.35552C15.6225 8.42853 15.546 8.3805 15.4013 8.06777C14.874 6.95254 13.4445 6.11478 12.4621 5.99854H9.80106C7.70785 5.99854 5.99707 7.70627 5.99707 9.79207V14.2156C5.99707 16.2969 7.70785 18.0016 9.80106 18.0016H14.1728C16.2669 18.0016 17.9671 16.2976 17.9783 14.2156L18.0016 11.1511C18.0014 11.151 17.9669 10.9838 17.9669 10.9838ZM9.76869 9.00448H11.9827C12.4041 9.00448 12.7477 9.34126 12.7477 9.75145C12.7477 10.1602 12.405 10.5 11.9827 10.5H9.76869C9.34647 10.5 9.00367 10.1602 9.00367 9.75145C9.00367 9.34126 9.34647 9.00448 9.76869 9.00448ZM14.2447 14.9992H9.76572C9.34499 14.9992 9.00375 14.6558 9.00375 14.2477C9.00375 13.8337 9.34499 13.497 9.76572 13.497H14.2447C14.6632 13.497 15.0022 13.8337 15.0022 14.2477C15.0022 14.6558 14.6632 14.9992 14.2447 14.9992Z" fill="white"/>
</svg>
