<svg width="150" height="50" viewBox="0 0 150 50" fill="none" xmlns="http://www.w3.org/2000/svg">
<path d="M144.235 49.8755H5.65408C2.6053 49.8755 0.11084 47.077 0.11084 43.6566V6.34315C0.11084 2.92275 2.6053 0.124245 5.65408 0.124245H144.235C147.284 0.124245 149.778 2.92275 149.778 6.34315V43.6566C149.778 47.077 147.284 49.8755 144.235 49.8755Z" fill="black"/>
<path d="M144.235 0.124245H5.65408C2.6053 0.124245 0.11084 2.92275 0.11084 6.34315V43.6566C0.11084 47.077 2.6053 49.8755 5.65408 49.8755H144.235C147.284 49.8755 149.778 47.077 149.778 43.6566V6.34315C149.778 2.92275 147.284 0.124245 144.235 0.124245ZM144.235 1.11927C146.803 1.11927 148.891 3.46305 148.891 6.34315V43.6566C148.891 46.5372 146.803 48.881 144.235 48.881H5.65408C3.08689 48.881 0.997758 46.5372 0.997758 43.6566V6.34315C0.997758 3.46305 3.08689 1.11927 5.65408 1.11927H144.235Z" fill="#A6A6A6"/>
<path d="M52.6811 12.8647C52.6811 13.9067 52.406 14.7366 51.8551 15.3556C51.2294 16.0917 50.4139 16.46 49.4113 16.46C48.4512 16.46 47.6349 16.0868 46.9637 15.3396C46.2911 14.5928 45.9556 13.6668 45.9556 12.5619C45.9556 11.4566 46.2911 10.5311 46.9637 9.78384C47.6349 9.03707 48.4512 8.66344 49.4113 8.66344C49.8877 8.66344 50.3438 8.76792 50.7768 8.97638C51.2099 9.18533 51.5572 9.4627 51.8171 9.81008L51.2324 10.4664C50.792 9.87613 50.1857 9.58123 49.4113 9.58123C48.7111 9.58123 48.1057 9.85722 47.5947 10.4096C47.0836 10.9626 46.8282 11.6796 46.8282 12.5619C46.8282 13.4443 47.0836 14.1613 47.5947 14.7143C48.1057 15.2667 48.7111 15.5427 49.4113 15.5427C50.1541 15.5427 50.7734 15.2652 51.2692 14.7095C51.591 14.3474 51.7772 13.8442 51.827 13.1979H49.4113V12.3015H52.6347C52.6659 12.4964 52.6811 12.6835 52.6811 12.8647Z" fill="white"/>
<path d="M52.6811 12.8648H52.5702C52.5693 13.8831 52.3043 14.674 51.7768 15.2678L51.7755 15.2688L51.7751 15.2698C51.1692 15.9805 50.3905 16.3342 49.4114 16.3357C48.4769 16.3342 47.6947 15.9766 47.0416 15.2518C46.39 14.5254 46.0677 13.6387 46.0665 12.5621C46.0677 11.485 46.39 10.5988 47.0416 9.8729C47.6947 9.14753 48.4769 8.78945 49.4114 8.78796C49.8734 8.78796 50.3135 8.88907 50.7331 9.09069C51.1531 9.2938 51.485 9.55997 51.7322 9.89044L51.8171 9.81022L51.7387 9.72228L51.154 10.3791L51.2324 10.4666L51.3178 10.387C50.8569 9.76743 50.21 9.45512 49.4114 9.45698C48.6852 9.45599 48.0464 9.74703 47.518 10.3204C46.9845 10.8957 46.7165 11.653 46.7173 12.5621C46.7165 13.4712 46.9845 14.2285 47.518 14.8038C48.0464 15.3771 48.6852 15.6682 49.4114 15.6672C50.1788 15.6687 50.8328 15.3766 51.3476 14.7975C51.6915 14.4107 51.8864 13.8749 51.9375 13.2087L51.9478 13.0737H49.5222V12.426H52.6347V12.3016L52.5255 12.3235C52.5559 12.5121 52.5702 12.6913 52.5702 12.8648H52.6811H52.792C52.792 12.6758 52.7763 12.4815 52.7438 12.2794L52.7274 12.1773H49.3005V13.198V13.3224H51.827V13.198L51.7166 13.1873C51.6677 13.8132 51.4901 14.2845 51.1908 14.6217C50.7145 15.1541 50.1299 15.4169 49.4114 15.4184C48.7371 15.4174 48.165 15.157 47.6718 14.625C47.1833 14.0949 46.9403 13.4182 46.9391 12.5621C46.9403 11.706 47.1833 11.0292 47.6718 10.4991C48.165 9.96718 48.7371 9.70674 49.4114 9.70574C50.161 9.70773 50.7271 9.98559 51.1476 10.5468L51.2255 10.6508L51.8955 9.89815L51.9673 9.81755L51.9019 9.73049C51.6295 9.36619 51.2667 9.07701 50.8206 8.86233C50.3737 8.64703 49.902 8.5392 49.4114 8.5392C48.4258 8.5382 47.5752 8.92688 46.8853 9.69604C46.1928 10.4637 45.8438 11.4286 45.8447 12.5621C45.8438 13.695 46.1928 14.6605 46.8857 15.4286C47.5752 16.1973 48.4258 16.5855 49.4114 16.5845C50.4377 16.5855 51.2892 16.203 51.9353 15.4417L51.8551 15.3557L51.9335 15.4437C52.5078 14.7999 52.7927 13.9302 52.792 12.8648H52.6811Z" fill="white"/>
<path d="M57.7914 9.74756H54.7622V12.1137H57.494V13.0105H54.7622V15.3767H57.7914V16.2935H53.9082V8.83077H57.7914V9.74756Z" fill="white"/>
<path d="M57.791 9.74769V9.62332H54.6509V12.2382H57.3827V12.8859L54.6509 12.8863V15.5012H57.6801V16.1692H54.0186V8.95528H57.6801V9.74769H57.791V9.62332V9.74769H57.9019V8.8309V8.70653H53.7969V16.418H57.9019V15.3768V15.2524H54.8726V13.135H57.6044V12.1139V11.9895H54.8726V9.87207H57.9019V9.74769H57.791Z" fill="white"/>
<path d="M61.3958 16.2935H60.5405V9.74756H58.6826V8.83077H63.2537V9.74756H61.3958V16.2935Z" fill="white"/>
<path d="M61.3958 16.2936V16.1692H60.6514V9.62332H58.7935V8.95528H63.1428V9.62332H61.285V16.2936H61.3958V16.1692V16.2936H61.5067V9.87207H63.3646V8.8309V8.70653H58.5718V9.74769V9.87207H60.4296V16.418H61.3958H61.5067V16.2936H61.3958Z" fill="white"/>
<path d="M66.561 16.2935V8.83077H67.4155V16.2935H66.561Z" fill="white"/>
<path d="M66.5611 16.2936H66.6719V8.95528H67.3046V16.1692H66.5611V16.2936H66.6719H66.5611V16.418H67.4155H67.5264V8.70653H66.5611H66.4502V16.418H66.5611V16.2936Z" fill="white"/>
<path d="M71.2067 16.2935H70.3514V9.74756H68.4937V8.83077H73.0646V9.74756H71.2067V16.2935Z" fill="white"/>
<path d="M71.2068 16.2936V16.1692H70.4623V9.62332H68.6045V8.95528H72.9538V9.62332H71.0959V16.2936H71.2068V16.1692V16.2936H71.3176V9.87207H73.1755V8.8309V8.70653H68.3828V9.74769V9.87207H70.2406V16.418H71.2068H71.3176V16.2936H71.2068Z" fill="white"/>
<path d="M77.4713 14.7041C77.9637 15.2633 78.5661 15.5427 79.2785 15.5427C79.9909 15.5427 80.5937 15.2633 81.0853 14.7041C81.5781 14.1449 81.825 13.4301 81.825 12.5619C81.825 11.6938 81.5781 10.979 81.0853 10.4198C80.5937 9.86058 79.9909 9.58123 79.2785 9.58123C78.5661 9.58123 77.9637 9.86058 77.4713 10.4198C76.9798 10.979 76.733 11.6938 76.733 12.5619C76.733 13.4301 76.9798 14.1449 77.4713 14.7041ZM81.7175 15.3289C81.0636 16.0833 80.2502 16.46 79.2785 16.46C78.3058 16.46 77.4929 16.0833 76.8404 15.3289C76.186 14.5753 75.8604 13.6527 75.8604 12.5619C75.8604 11.4712 76.186 10.5485 76.8404 9.79503C77.4929 9.04043 78.3058 8.66344 79.2785 8.66344C80.2451 8.66344 81.0562 9.04242 81.7132 9.79988C82.3693 10.5573 82.6976 11.478 82.6976 12.5619C82.6976 13.6527 82.3701 14.5753 81.7175 15.3289Z" fill="white"/>
<path d="M77.4714 14.7042L77.3925 14.7917C77.9032 15.3733 78.5402 15.6687 79.2786 15.6672C80.0165 15.6687 80.6544 15.3733 81.1642 14.7917C81.6781 14.2096 81.9367 13.4565 81.9359 12.5621C81.9367 11.6677 81.6781 10.9146 81.1642 10.3325C80.6544 9.75089 80.0165 9.45549 79.2786 9.45698C78.5402 9.45549 77.9032 9.75089 77.3925 10.3325C76.8798 10.9146 76.6208 11.6677 76.6221 12.5621C76.6208 13.4565 76.8798 14.2096 77.3925 14.7917L77.4714 14.7042L77.5502 14.6168C77.0799 14.0799 76.8447 13.4045 76.8439 12.5621C76.8447 11.7197 77.0799 11.0443 77.5502 10.5074C78.0248 9.97054 78.5917 9.70723 79.2786 9.70574C79.9649 9.70723 80.5331 9.97054 81.0065 10.5074C81.4777 11.0443 81.7128 11.7197 81.7137 12.5621C81.7128 13.4045 81.4777 14.0799 81.0065 14.6168C80.5331 15.1536 79.9649 15.4169 79.2786 15.4184C78.5917 15.4169 78.0248 15.1536 77.5502 14.6168L77.4714 14.7042ZM81.7176 15.329L81.6383 15.2426C81.0026 15.9733 80.2253 16.3342 79.2786 16.3357C78.3315 16.3342 77.5541 15.9733 76.9196 15.2426L76.9166 15.2387L76.9196 15.2426C76.2852 14.5093 75.9721 13.6251 75.9712 12.5621C75.9721 11.499 76.2852 10.6148 76.9196 9.88161C77.5541 9.15089 78.3315 8.78945 79.2786 8.78795C80.2192 8.78945 80.9948 9.15238 81.634 9.88696C82.2706 10.6235 82.5855 11.5064 82.5868 12.5621C82.5855 13.6251 82.2715 14.5093 81.6383 15.2426L81.7176 15.329L81.7973 15.4154C82.4694 14.6411 82.8093 13.6805 82.8085 12.5621C82.8093 11.45 82.4681 10.4914 81.7929 9.71357C81.1174 8.93273 80.2711 8.53783 79.2786 8.5392C78.2808 8.53783 77.432 8.93086 76.7607 9.70872V9.70823C76.0873 10.4831 75.7486 11.4437 75.7495 12.5621C75.7486 13.6805 76.0873 14.6411 76.7607 15.4159L76.7637 15.4194L76.7607 15.4154C77.432 16.1933 78.2808 16.5855 79.2786 16.5845C80.2759 16.5855 81.1247 16.1933 81.7973 15.4154L81.7176 15.329Z" fill="white"/>
<path d="M83.8975 16.2935V8.83077H84.9377L88.1705 14.6362H88.2073L88.1705 13.1981V8.83077H89.0258V16.2935H88.1337L84.7514 10.2066H84.7146L84.7514 11.6453V16.2935H83.8975Z" fill="white"/>
<path d="M83.897 16.2936H84.0079V8.95528H84.8757L88.1085 14.7608H88.2069H88.3207L88.2809 13.1963V8.95528H88.9145V16.1692H88.1948L84.8125 10.0824H84.7142H84.6003L84.6401 11.6474V16.1692H83.897V16.2936H84.0079H83.897V16.418H84.751H84.8618V11.6435L84.825 10.2034L84.7142 10.2068V10.3312H84.751V10.2068L84.657 10.2729L88.0717 16.418H89.0254H89.1362V8.70653H88.17H88.0592V13.1997L88.096 14.6397L88.2069 14.6364V14.512H88.17V14.6364L88.2641 14.5703L84.9987 8.70653H83.897H83.7861V16.418H83.897V16.2936Z" fill="white"/>
<path d="M118.665 37.4374H120.734V21.8887H118.665V37.4374ZM137.298 27.4897L134.927 34.2308H134.856L132.395 27.4897H130.166L133.857 36.9117L131.753 42.1526H133.911L139.599 27.4897H137.298ZM125.567 35.6714C124.888 35.6714 123.944 35.2914 123.944 34.3509C123.944 33.1507 125.121 32.6907 126.136 32.6907C127.047 32.6907 127.473 32.9107 128.027 33.2111C127.866 34.6511 126.761 35.6714 125.567 35.6714ZM125.816 27.1495C124.318 27.1495 122.767 27.8899 122.125 29.5302L123.961 30.3902C124.354 29.5302 125.084 29.2499 125.852 29.2499C126.921 29.2499 128.009 29.9704 128.027 31.2506V31.4104C127.652 31.1704 126.85 30.8104 125.869 30.8104C123.89 30.8104 121.875 32.0303 121.875 34.3109C121.875 36.3914 123.498 37.7318 125.316 37.7318C126.707 37.7318 127.473 37.0317 127.956 36.2117H128.027V37.4117H130.023V31.4502C130.023 28.6902 128.187 27.1495 125.816 27.1495ZM113.031 29.3825H110.089V24.0527H113.031C114.578 24.0527 115.456 25.4893 115.456 26.7175C115.456 27.9225 114.578 29.3825 113.031 29.3825ZM112.978 21.8887H108.021V37.4374H110.089V31.5465H112.978C115.271 31.5465 117.524 29.6842 117.524 26.7175C117.524 23.751 115.271 21.8887 112.978 21.8887ZM85.9479 35.6742C84.5188 35.6742 83.3222 34.3318 83.3222 32.488C83.3222 30.6249 84.5188 29.262 85.9479 29.262C87.3589 29.262 88.4662 30.6249 88.4662 32.488C88.4662 34.3318 87.3589 35.6742 85.9479 35.6742ZM88.3233 28.3603H88.2518C87.7876 27.7393 86.8942 27.1782 85.7691 27.1782C83.4115 27.1782 81.2505 29.5025 81.2505 32.488C81.2505 35.4537 83.4115 37.7581 85.7691 37.7581C86.8942 37.7581 87.7876 37.1969 88.2518 36.5561H88.3233V37.3174C88.3233 39.3415 87.3589 40.4235 85.805 40.4235C84.537 40.4235 83.7511 39.4012 83.4292 38.5398L81.6256 39.3813C82.1435 40.7839 83.5189 42.5073 85.805 42.5073C88.2341 42.5073 90.2881 40.904 90.2881 36.9968V27.4989H88.3233V28.3603ZM91.7168 37.4374H93.7886V21.8882H91.7168V37.4374ZM96.843 32.3078C96.7893 30.2638 98.2539 29.2221 99.3076 29.2221C100.13 29.2221 100.826 29.6827 101.058 30.3445L96.843 32.3078ZM103.273 30.5446C102.88 29.3621 101.683 27.1782 99.2361 27.1782C96.807 27.1782 94.789 29.3222 94.789 32.4681C94.789 35.4338 96.7893 37.7581 99.4682 37.7581C101.63 37.7581 102.88 36.2752 103.398 35.4138L101.791 34.2113C101.255 35.0931 100.522 35.6742 99.4682 35.6742C98.4146 35.6742 97.6646 35.1331 97.1821 34.0714L103.487 31.1456L103.273 30.5446ZM53.042 28.8014V31.0455H57.8286C57.6856 32.3078 57.3106 33.2295 56.739 33.8708C56.0426 34.6525 54.9531 35.5139 53.042 35.5139C50.0949 35.5139 47.791 32.849 47.791 29.5428C47.791 26.2366 50.0949 23.5713 53.042 23.5713C54.6317 23.5713 55.7923 24.2727 56.6497 25.1745L58.0607 23.5917C56.8641 22.3089 55.2743 21.3271 53.042 21.3271C49.0053 21.3271 45.6118 25.0142 45.6118 29.5428C45.6118 34.0714 49.0053 37.7581 53.042 37.7581C55.2211 37.7581 56.8641 36.957 58.15 35.4537C59.4717 33.9709 59.8827 31.8871 59.8827 30.2041C59.8827 29.6827 59.8471 29.2022 59.7752 28.8014H53.042ZM65.3246 35.6742C63.8954 35.6742 62.6629 34.3517 62.6629 32.4681C62.6629 30.5645 63.8954 29.262 65.3246 29.262C66.7532 29.262 67.9856 30.5645 67.9856 32.4681C67.9856 34.3517 66.7532 35.6742 65.3246 35.6742ZM65.3246 27.1782C62.7166 27.1782 60.5911 29.4023 60.5911 32.4681C60.5911 35.5139 62.7166 37.7581 65.3246 37.7581C67.932 37.7581 70.0575 35.5139 70.0575 32.4681C70.0575 29.4023 67.932 27.1782 65.3246 27.1782ZM75.6496 35.6742C74.221 35.6742 72.9884 34.3517 72.9884 32.4681C72.9884 30.5645 74.221 29.262 75.6496 29.262C77.0783 29.262 78.3108 30.5645 78.3108 32.4681C78.3108 34.3517 77.0783 35.6742 75.6496 35.6742ZM75.6496 27.1782C73.0417 27.1782 70.9167 29.4023 70.9167 32.4681C70.9167 35.5139 73.0417 37.7581 75.6496 37.7581C78.2572 37.7581 80.3827 35.5139 80.3827 32.4681C80.3827 29.4023 78.2572 27.1782 75.6496 27.1782Z" fill="white"/>
<path d="M11.7624 40.4097L11.6801 40.3212C11.3575 39.9383 11.167 39.3436 11.167 38.5736V38.7548V11.2474C11.167 11.2449 11.167 11.243 11.167 11.241C11.167 11.2434 11.167 11.2454 11.167 11.2479V11.4296C11.167 10.5957 11.3891 9.96763 11.7611 9.59101L25.497 25.0008L11.7624 40.4097ZM11.167 11.2395C11.167 11.171 11.1687 11.1044 11.1718 11.0389C11.1687 11.104 11.167 11.171 11.167 11.2395ZM11.1718 11.0359C11.1718 11.035 11.1718 11.034 11.1721 11.0331C11.1718 11.034 11.1718 11.035 11.1718 11.0359ZM11.1721 11.0272C11.1721 11.0267 11.1721 11.0262 11.1721 11.0257C11.1721 11.0262 11.1721 11.0267 11.1721 11.0272Z" fill="url(#paint0_linear_148_919)"/>
<path d="M30.075 30.3213L30.1794 30.2547L35.6039 26.7969C36.1211 26.4671 36.4658 26.0672 36.6378 25.644C36.4662 26.0672 36.1215 26.4676 35.6039 26.7974L30.1794 30.2552L30.075 30.3213ZM30.0763 30.1391L25.4971 25.0008L30.0759 19.8633L35.6039 23.3867C36.3059 23.8342 36.7001 24.411 36.7659 25.0003C36.7659 25.0008 36.7659 25.0018 36.7659 25.0026C36.7001 25.5906 36.3059 26.1678 35.6039 26.6152L30.0763 30.1391Z" fill="url(#paint1_linear_148_919)"/>
<path d="M12.7416 40.9961C12.3579 40.9961 12.023 40.8562 11.762 40.5919L11.7624 40.5914C12.0235 40.8557 12.3587 40.9961 12.7424 40.9961C12.7757 40.9961 12.8095 40.9951 12.8438 40.9932C12.8091 40.9951 12.7748 40.9961 12.7416 40.9961ZM12.742 40.8139C12.3583 40.8144 12.0235 40.674 11.7624 40.4096V40.4093L25.497 25.0004L30.0763 30.1388L13.984 40.3966C13.5388 40.6798 13.1169 40.8139 12.742 40.8139ZM11.7585 40.5885C11.7342 40.5638 11.7104 40.5375 11.687 40.5103L11.7585 40.5885Z" fill="url(#paint2_linear_148_919)"/>
<path d="M25.4971 25.001L11.7612 9.59115C12.0223 9.32735 12.3567 9.18742 12.7399 9.18742C13.1159 9.18742 13.5381 9.322 13.9842 9.60571L30.076 19.8635L25.4971 25.001ZM30.1795 19.7475L13.9842 9.42411C13.5381 9.14028 13.1159 9.0057 12.7399 9.0057C12.7382 9.0057 12.737 9.0057 12.7352 9.0057C12.7374 9.0057 12.7391 9.0057 12.7417 9.0057C13.1168 9.0057 13.5385 9.13978 13.9842 9.42361L30.1795 19.7475Z" fill="url(#paint3_linear_148_919)"/>
<path d="M12.8439 40.9932C13.1925 40.9708 13.5784 40.8362 13.9842 40.5782L30.0751 30.3209L13.9842 40.5782C13.5787 40.8367 13.1925 40.9708 12.8439 40.9932ZM11.7621 40.5918L11.7587 40.5884C11.7599 40.5894 11.7612 40.5908 11.7621 40.5918ZM11.6872 40.5102L11.6802 40.5025V40.502C11.6828 40.5049 11.6849 40.5077 11.6872 40.5102Z" fill="black"/>
<path d="M30.0752 30.3213L30.1796 30.2547L30.0752 30.3213Z" fill="url(#paint4_linear_148_919)"/>
<path d="M12.7426 40.9961C12.3589 40.9961 12.0236 40.8557 11.7625 40.5914L11.7621 40.5919C11.7612 40.5909 11.7599 40.5895 11.7587 40.5885L11.6872 40.5103C11.6849 40.5078 11.6828 40.5049 11.6802 40.5021L11.7625 40.4096C12.0236 40.674 12.3584 40.8144 12.7422 40.8139C13.1171 40.8139 13.5389 40.6798 13.9842 40.3966L30.0764 30.1388L30.1795 30.2544L30.0751 30.321L13.9842 40.5783C13.5784 40.8363 13.1925 40.9708 12.8439 40.9932C12.8097 40.9951 12.7759 40.9961 12.7426 40.9961Z" fill="url(#paint5_linear_148_919)"/>
<path d="M11.6801 40.5029C11.3575 40.12 11.167 39.5253 11.167 38.7553V38.7548C11.167 39.5253 11.3575 40.1195 11.6801 40.5024V40.5029Z" fill="black"/>
<path d="M11.6801 40.5024C11.3575 40.1195 11.167 39.5253 11.167 38.7548V38.5736C11.167 39.3436 11.3575 39.9383 11.6801 40.3212L11.7624 40.4097L11.6801 40.5024Z" fill="url(#paint6_linear_148_919)"/>
<path d="M11.6802 40.5024L11.7625 40.4097V40.41L11.6802 40.5024Z" fill="url(#paint7_linear_148_919)"/>
<path d="M36.6377 25.6445C36.723 25.4346 36.7659 25.2189 36.7659 25.0031C36.7659 25.0028 36.7659 25.0023 36.7659 25.0023C36.7659 25.2184 36.723 25.4341 36.6377 25.6445Z" fill="black"/>
<path d="M30.1793 30.2544L30.0762 30.1387L35.6038 26.6148C36.3058 26.1675 36.6999 25.5902 36.7658 25.0023C36.7658 25.2181 36.7228 25.4337 36.6376 25.6437C36.4656 26.0668 36.121 26.4667 35.6038 26.7966L30.1793 30.2544Z" fill="url(#paint8_linear_148_919)"/>
<path d="M36.7656 25.001V25.0005C36.7652 24.3499 36.3776 23.6994 35.6037 23.2057L30.1792 19.7479H30.1787L30.1792 19.7475L35.6037 23.2052C36.3785 23.6989 36.7665 24.3504 36.7656 25.001Z" fill="#404040"/>
<path d="M36.7657 25.0005C36.6998 24.4112 36.3057 23.8344 35.6037 23.3869L30.0757 19.8635L30.1788 19.7479H30.1792L35.6037 23.2057C36.3777 23.6994 36.7653 24.3499 36.7657 25.0005Z" fill="url(#paint9_linear_148_919)"/>
<path d="M11.167 11.2407C11.167 11.2402 11.167 11.2397 11.167 11.2392C11.167 11.2397 11.167 11.2402 11.167 11.2407ZM11.1718 11.0386C11.1718 11.0376 11.1718 11.0366 11.1718 11.0356C11.1718 11.0366 11.1718 11.0376 11.1718 11.0386ZM11.1721 11.0328C11.1721 11.0308 11.1721 11.0289 11.1721 11.0269C11.1721 11.0289 11.1721 11.0308 11.1721 11.0328ZM11.1721 11.0254C11.2363 9.74769 11.8556 9.00963 12.7316 9.00528C12.3518 9.00777 12.021 9.14769 11.762 9.40951V9.40901L11.7589 9.41249C11.7316 9.4401 11.7057 9.46933 11.6801 9.49943C11.3891 9.84483 11.2055 10.3622 11.1721 11.0254Z" fill="#404040"/>
<path d="M11.167 11.4297V11.248C11.167 11.2455 11.167 11.2435 11.167 11.2411C11.167 11.2406 11.167 11.2401 11.167 11.2396C11.167 11.1711 11.1687 11.1041 11.1718 11.039C11.1718 11.038 11.1718 11.037 11.1718 11.036C11.1718 11.0352 11.1718 11.0342 11.1721 11.0332C11.1721 11.0312 11.1721 11.0293 11.1721 11.0273C11.1721 11.0268 11.1721 11.0263 11.1721 11.0258C11.2055 10.3626 11.3891 9.84523 11.6801 9.49984L11.7611 9.59113C11.3891 9.96775 11.167 10.5959 11.167 11.4297ZM11.7589 9.41289L11.762 9.40941C11.7611 9.41091 11.7598 9.4119 11.7589 9.41289Z" fill="url(#paint10_linear_148_919)"/>
<path d="M30.076 19.8633L13.9842 9.60544C13.538 9.32174 13.1159 9.18716 12.7399 9.18716C12.3567 9.18716 12.0223 9.32709 11.7612 9.59089L11.6802 9.4996C11.7058 9.4695 11.7317 9.44027 11.759 9.41266C11.7599 9.41166 11.7612 9.41067 11.7621 9.40967C12.0211 9.14786 12.3519 9.00793 12.7317 9.00544C12.7326 9.00544 12.7338 9.00544 12.7352 9.00544C12.7369 9.00544 12.7382 9.00544 12.7399 9.00544C13.1159 9.00544 13.538 9.14002 13.9842 9.42385L30.1795 19.7472L30.1791 19.7476L30.076 19.8633Z" fill="url(#paint11_linear_148_919)"/>
<defs>
<linearGradient id="paint0_linear_148_919" x1="24.2791" y1="10.9572" x2="3.54263" y2="29.4407" gradientUnits="userSpaceOnUse">
<stop stop-color="#00A0FF"/>
<stop offset="0.00657445" stop-color="#00A1FF"/>
<stop offset="0.2601" stop-color="#00BEFF"/>
<stop offset="0.5122" stop-color="#00D2FF"/>
<stop offset="0.7604" stop-color="#00DFFF"/>
<stop offset="1" stop-color="#00E3FF"/>
</linearGradient>
<linearGradient id="paint1_linear_148_919" x1="37.6212" y1="25.0015" x2="10.7953" y2="25.0015" gradientUnits="userSpaceOnUse">
<stop stop-color="#FFE000"/>
<stop offset="0.4087" stop-color="#FFBD00"/>
<stop offset="0.7754" stop-color="#FFA500"/>
<stop offset="1" stop-color="#FF9C00"/>
</linearGradient>
<linearGradient id="paint2_linear_148_919" x1="27.6351" y1="27.8553" x2="-0.485025" y2="52.9203" gradientUnits="userSpaceOnUse">
<stop stop-color="#FF3A44"/>
<stop offset="1" stop-color="#C31162"/>
</linearGradient>
<linearGradient id="paint3_linear_148_919" x1="8.20103" y1="0.343516" x2="20.7578" y2="11.536" gradientUnits="userSpaceOnUse">
<stop stop-color="#32A071"/>
<stop offset="0.0685" stop-color="#2DA771"/>
<stop offset="0.4762" stop-color="#15CF74"/>
<stop offset="0.8009" stop-color="#06E775"/>
<stop offset="1" stop-color="#00F076"/>
</linearGradient>
<linearGradient id="paint4_linear_148_919" x1="37.6215" y1="25.0017" x2="10.7954" y2="25.0017" gradientUnits="userSpaceOnUse">
<stop stop-color="#CCB300"/>
<stop offset="0.4087" stop-color="#CC9700"/>
<stop offset="0.7754" stop-color="#CC8400"/>
<stop offset="1" stop-color="#CC7D00"/>
</linearGradient>
<linearGradient id="paint5_linear_148_919" x1="27.6353" y1="27.8553" x2="-0.484864" y2="52.9203" gradientUnits="userSpaceOnUse">
<stop stop-color="#CC2E36"/>
<stop offset="1" stop-color="#9C0E4E"/>
</linearGradient>
<linearGradient id="paint6_linear_148_919" x1="24.2791" y1="10.9572" x2="3.54265" y2="29.4407" gradientUnits="userSpaceOnUse">
<stop stop-color="#008DE0"/>
<stop offset="0.00657445" stop-color="#008DE0"/>
<stop offset="0.2601" stop-color="#00A7E0"/>
<stop offset="0.5122" stop-color="#00B8E0"/>
<stop offset="0.7604" stop-color="#00C4E0"/>
<stop offset="1" stop-color="#00C7E0"/>
</linearGradient>
<linearGradient id="paint7_linear_148_919" x1="27.6351" y1="27.8558" x2="-0.484672" y2="52.9206" gradientUnits="userSpaceOnUse">
<stop stop-color="#E0333C"/>
<stop offset="1" stop-color="#AB0F56"/>
</linearGradient>
<linearGradient id="paint8_linear_148_919" x1="37.6211" y1="25.0012" x2="10.7951" y2="25.0012" gradientUnits="userSpaceOnUse">
<stop stop-color="#E0C500"/>
<stop offset="0.4087" stop-color="#E0A600"/>
<stop offset="0.7754" stop-color="#E09100"/>
<stop offset="1" stop-color="#E08900"/>
</linearGradient>
<linearGradient id="paint9_linear_148_919" x1="37.621" y1="25.0017" x2="10.7951" y2="25.0017" gradientUnits="userSpaceOnUse">
<stop stop-color="#FFE840"/>
<stop offset="0.4087" stop-color="#FFCE40"/>
<stop offset="0.7754" stop-color="#FFBC40"/>
<stop offset="1" stop-color="#FFB540"/>
</linearGradient>
<linearGradient id="paint10_linear_148_919" x1="24.2789" y1="10.9573" x2="3.54251" y2="29.4406" gradientUnits="userSpaceOnUse">
<stop stop-color="#40B8FF"/>
<stop offset="0.00657445" stop-color="#40B9FF"/>
<stop offset="0.2601" stop-color="#40CEFF"/>
<stop offset="0.5122" stop-color="#40DDFF"/>
<stop offset="0.7604" stop-color="#40E7FF"/>
<stop offset="1" stop-color="#40EAFF"/>
</linearGradient>
<linearGradient id="paint11_linear_148_919" x1="8.20102" y1="0.343254" x2="20.7578" y2="11.5358" gradientUnits="userSpaceOnUse">
<stop stop-color="#65B895"/>
<stop offset="0.0685" stop-color="#62BD95"/>
<stop offset="0.4762" stop-color="#50DB97"/>
<stop offset="0.8009" stop-color="#44ED98"/>
<stop offset="1" stop-color="#40F498"/>
</linearGradient>
</defs>
</svg>
