<svg width="24" height="24" viewBox="0 0 24 24" fill="none" xmlns="http://www.w3.org/2000/svg">
<path d="M20.6989 10.3744C20.6989 4.64596 16.0674 0.00219727 10.3541 0.00219727C4.64078 0.00219727 0.00927734 4.64596 0.00927734 10.3744C0.00927734 16.1029 4.64078 20.7467 10.3541 20.7467C16.0674 20.7467 20.6989 16.1029 20.6989 10.3744Z" fill="#89C8FD"/>
<path d="M10.354 0.00219727C9.82308 0.00219727 9.30129 0.0423541 8.79199 0.119782C13.764 0.874826 17.5746 5.17834 17.5746 10.3744C17.5746 15.5705 13.764 19.874 8.79199 20.6291C9.30129 20.7065 9.82308 20.7467 10.354 20.7467C16.0673 20.7467 20.6988 16.1029 20.6988 10.3744C20.6988 4.64596 16.0673 0.00219727 10.354 0.00219727Z" fill="#60B6FF"/>
<path d="M9.00942 4.03334C7.41589 5.03197 6.22057 6.62959 7.117 8.42727C8.01344 10.2247 10.0054 9.52569 11.848 9.27609C13.6907 9.02649 12.2963 14.7187 13.3918 16.1167C14.4873 17.5147 17.5748 14.7187 17.2762 12.921C16.8337 10.2596 16.6786 9.32587 20.2641 7.42864L20.2738 7.42503C19.0652 3.33264 15.4069 0.296115 11.0019 0.0231934L11.0014 0.0388233C11.0014 0.0388233 10.6029 3.03471 9.00942 4.03334Z" fill="#BAEB6C"/>
<path d="M16.8354 2.29077C16.8363 2.29133 16.8371 2.29216 16.838 2.29272C16.8371 2.29216 16.8363 2.29161 16.8354 2.29077Z" fill="#BAEB6C"/>
<path d="M18.1006 3.50098C18.1006 3.50124 18.1009 3.50151 18.1011 3.50151C18.1009 3.50124 18.1009 3.50124 18.1006 3.50098Z" fill="#BAEB6C"/>
<path d="M3.48176 15.0681C3.00324 14.3384 4.32842 12.6217 4.62707 11.3235C4.92596 10.0252 3.13309 10.125 2.58533 9.67559C2.03756 9.22617 1.29045 7.27893 0.74268 6.82951L0.655153 6.7605C0.237714 7.88585 0.00927734 9.10354 0.00927734 10.3746C0.00927734 13.8031 1.66845 16.8425 4.2255 18.7308L4.22863 18.5135C4.22863 18.5135 4.62707 16.8158 3.48176 15.0681Z" fill="#BAEB6C"/>
<path d="M17.2763 12.921C17.2741 12.9081 17.272 12.8953 17.2698 12.8823C17.0719 13.6819 16.7814 14.4448 16.4104 15.159C16.9988 14.4645 17.392 13.6179 17.2763 12.921Z" fill="#BAEB6C"/>
<path d="M11.0021 0.0231934L11.0016 0.0388233C11.0016 0.0388233 10.9684 0.288902 10.8828 0.668107C14.5104 2.04113 17.1663 5.3994 17.5318 9.42181C17.9889 8.79661 18.825 8.19017 20.2644 7.42864L20.274 7.42503C19.0654 3.33264 15.4071 0.296115 11.0021 0.0231934Z" fill="#96D629"/>
<path d="M6.62061 17.3794V22.3449C6.62061 23.259 7.36172 24.0001 8.27578 24.0001H22.3447C23.2588 24.0001 23.9999 23.259 23.9999 22.3449V17.3794H6.62061Z" fill="#FFCD00"/>
<path d="M22.3447 13.2415H8.27578C7.36172 13.2415 6.62061 13.9826 6.62061 14.8966V15.7242H23.9999V14.8966C23.9999 13.9826 23.2588 13.2415 22.3447 13.2415Z" fill="#FFCD00"/>
<path d="M6.62061 15.7241H23.9999V17.3793H6.62061V15.7241Z" fill="#58595B"/>
<path d="M6.62061 17.3794V22.3449C6.62061 23.259 7.36172 24.0001 8.27578 24.0001H14.8965C10.3219 24.0001 6.62061 21.0391 6.62061 17.3794Z" fill="#EBBF00"/>
<path d="M16.1379 21.1035H17.7931V21.9311H16.1379V21.1035Z" fill="#F1F2F2"/>
<path d="M19.4485 21.1035H21.1037V21.9311H19.4485V21.1035Z" fill="#F1F2F2"/>
<path d="M12.8276 21.1035H14.4828V21.9311H12.8276V21.1035Z" fill="#F1F2F2"/>
<path d="M9.51733 21.1035H11.1725V21.9311H9.51733V21.1035Z" fill="#F1F2F2"/>
</svg>
