<svg width="24" height="24" viewBox="0 0 24 24" fill="none" xmlns="http://www.w3.org/2000/svg">
<path d="M12 24C18.6274 24 24 18.6274 24 12C24 5.37258 18.6274 0 12 0C5.37258 0 0 5.37258 0 12C0 18.6274 5.37258 24 12 24Z" fill="#FF526C"/>
<path d="M19.6571 17.3935C19.4573 17.9455 19.1811 18.4696 18.8411 18.9545C17.0505 21.5093 13.9011 22.4325 11.1244 21.6209C10.0204 21.2987 8.97466 20.7016 8.09744 19.8244L5.44666 17.1736L5.15228 16.891L3.38364 15.1928C3.0731 15.1928 2.78364 15.1046 2.53778 14.9524C2.07981 14.6692 1.77466 14.1618 1.77466 13.5839C1.77466 13.0054 2.07981 12.498 2.53778 12.2149C2.78364 12.0631 3.07314 11.9749 3.38364 11.9749C3.0731 11.9749 2.78364 11.8867 2.53778 11.7344C2.07981 11.4513 1.77466 10.9444 1.77466 10.3664C1.77466 9.78799 2.07981 9.28104 2.53778 8.99796C2.78364 8.84562 3.07314 8.75749 3.38364 8.75749V6.86444C3.0731 6.86444 2.78364 6.77726 2.53778 6.62491C2.07981 6.34132 1.77466 5.83437 1.77466 5.25645C1.77466 4.67801 2.07981 4.17059 2.53778 3.88746C2.78364 3.73563 3.07314 3.64746 3.38364 3.64746L13.664 8.6321L14.0622 8.82457L14.5104 9.04202C14.5442 8.63941 14.6108 8.23727 14.7102 7.83809C14.8414 7.31055 15.1956 6.89721 15.6486 6.67582C16.0096 6.49755 16.4338 6.44121 16.8555 6.54602C17.8047 6.78162 18.3831 7.7426 18.1475 8.69135C17.8835 9.75274 18.0491 10.8538 18.6143 11.7903C18.6144 11.7903 20.6191 14.7241 19.6571 17.3935Z" fill="#FFDCBF"/>
<path d="M11.1242 21.6208C10.0202 21.2986 8.97447 20.7015 8.09726 19.8243L5.44647 17.1735L5.1521 16.8909L9.74688 17.8386C6.9536 17.8386 9.19882 20.4238 11.1242 21.6208Z" fill="#FCBB8D"/>
<path d="M15.8293 14.0183C15.7539 14.0637 15.6711 14.0857 15.589 14.0857C15.4308 14.0857 15.2759 14.005 15.1884 13.8587C14.3025 12.3879 13.9099 10.7141 14.0514 9.01831C14.0521 8.98559 14.0548 8.91945 14.0621 8.82471L14.5101 9.0417C14.5442 8.63909 14.6109 8.23718 14.7104 7.83795C14.8413 7.31055 15.1958 6.89726 15.6485 6.67554C15.0082 7.90934 14.9862 9.03232 14.9862 9.04568L14.9842 9.08173C14.9788 9.14314 14.9748 9.20459 14.9715 9.26534C14.8987 10.4631 15.129 11.6448 15.6418 12.7284C15.7459 12.9487 15.8615 13.165 15.989 13.3767C16.1218 13.5983 16.051 13.8854 15.8293 14.0183Z" fill="#FCBB8D"/>
<path d="M13.6641 8.63186V16.4005C13.6641 17.195 12.9117 17.8386 11.9823 17.8386H6.11173L5.44672 17.1736L3.3837 15.1927C3.07325 15.1927 2.78351 15.1046 2.53784 14.9524L2.55504 14.9293C3.15551 14.122 3.14853 13.0146 2.53784 12.215C2.78351 12.0628 3.07329 11.9747 3.3837 11.9747C3.07325 11.9747 2.78351 11.8866 2.53784 11.7344L2.64711 11.5983C3.19278 10.9188 3.22114 9.95978 2.71658 9.24934L2.53784 8.99772C2.78351 8.84547 3.07329 8.75739 3.3837 8.75739V6.86462C3.07325 6.86462 2.78351 6.77715 2.53784 6.6249L2.81755 6.15301C3.16447 5.56783 3.1505 4.83667 2.78154 4.26508L2.53784 3.88754C2.78351 3.73529 3.07329 3.64722 3.3837 3.64722L13.6641 8.63186Z" fill="#FCBB8D"/>
<path d="M8.36475 1.45459L3.61464 1.81158C2.74023 1.87729 2.0848 2.6428 2.15082 3.52123L3.16694 17.0418C3.23296 17.9203 3.99545 18.5792 4.86986 18.5135L9.61996 18.1565L8.36475 1.45459Z" fill="#FFCD00"/>
<path d="M13.7678 16.2455L12.7516 2.72494C12.6856 1.8465 11.8309 1.19449 10.8428 1.26875L9.94821 1.33598L11.2034 18.0379L12.0981 17.9707C13.0862 17.8964 13.8338 17.124 13.7678 16.2455Z" fill="#FFCD00"/>
<path d="M9.94824 1.33594L11.2035 18.0379L9.62009 18.1569L8.36487 1.45493L9.94824 1.33594Z" fill="#58595B"/>
<path d="M5.50562 11.083L5.62796 12.711L4.83628 12.7704L4.71393 11.1425L5.50562 11.083Z" fill="#F1F2F2"/>
<path d="M5.75049 14.3391L5.87283 15.9671L5.08115 16.0266L4.9588 14.3986L5.75049 14.3391Z" fill="#F1F2F2"/>
<path d="M5.26099 7.82715L5.38333 9.4551L4.59165 9.5146L4.4693 7.88665L5.26099 7.82715Z" fill="#F1F2F2"/>
<path d="M5.01636 4.57104L5.1387 6.19899L4.34702 6.25848L4.22467 4.63054L5.01636 4.57104Z" fill="#F1F2F2"/>
<path d="M22.9178 16.9871C21.8711 19.2759 20.1254 21.1782 17.9537 22.4213C16.811 23.0757 15.5503 23.5474 14.2117 23.7967L12.6321 22.2171L20.3899 14.4592L22.9178 16.9871Z" fill="#65A3E6"/>
<path d="M17.9537 22.4214C16.811 23.0757 15.5503 23.5474 14.2117 23.7967L12.6321 22.2171L15.1908 19.6584L17.9537 22.4214Z" fill="#1B79CF"/>
</svg>
