<svg width="24" height="24" viewBox="0 0 24 24" fill="none" xmlns="http://www.w3.org/2000/svg">
<circle cx="12" cy="12" r="10" fill="#FBB122"/>
<circle cx="12" cy="12" r="8" fill="#FED842"/>
<path d="M11.1033 6.81696C11.4701 6.07371 12.5299 6.07371 12.8967 6.81696L13.8246 8.69697C13.9702 8.99211 14.2518 9.19668 14.5775 9.24401L16.6522 9.54548C17.4725 9.66467 17.8 10.6726 17.2065 11.2512L15.7052 12.7146C15.4695 12.9443 15.3619 13.2753 15.4176 13.5997L15.772 15.666C15.9121 16.4829 15.0547 17.1059 14.321 16.7202L12.4653 15.7446C12.174 15.5915 11.826 15.5915 11.5347 15.7446L9.67898 16.7202C8.94535 17.1059 8.08792 16.4829 8.22803 15.666L8.58244 13.5997C8.63807 13.2753 8.53052 12.9443 8.29484 12.7146L6.79356 11.2512C6.20004 10.6726 6.52755 9.66467 7.34777 9.54548L9.42249 9.24401C9.7482 9.19668 10.0298 8.99211 10.1754 8.69697L11.1033 6.81696Z" fill="#FBB122"/>
</svg>
