<svg width="28" height="29" viewBox="0 0 28 29" fill="none" xmlns="http://www.w3.org/2000/svg">
<g clip-path="url(#clip0)">
<path d="M14 28.1875C21.732 28.1875 28 21.9195 28 14.1875C28 6.45551 21.732 0.1875 14 0.1875C6.26801 0.1875 0 6.45551 0 14.1875C0 21.9195 6.26801 28.1875 14 28.1875Z" fill="#7E95F3"/>
<path opacity="0.2" d="M27.9994 14.1875C27.9994 13.4498 27.9423 12.7254 27.8324 12.0185L22.008 6.19403L4.53516 20.5303L12.059 28.0541C12.6932 28.1421 13.341 28.1875 13.9994 28.1875C21.7314 28.1875 27.9994 21.9195 27.9994 14.1875Z" fill="#111C36"/>
<path d="M4.53516 8.84473C4.53516 8.29244 4.98287 7.84473 5.53516 7.84473H22.4637C23.016 7.84473 23.4637 8.29244 23.4637 8.84473V19.5302C23.4637 20.0825 23.016 20.5302 22.4637 20.5302H5.53516C4.98287 20.5302 4.53516 20.0825 4.53516 19.5302V8.84473Z" fill="#FFCE00"/>
<path d="M14 7.84473H22.4643C23.0166 7.84473 23.4643 8.29244 23.4643 8.84473V19.5302C23.4643 20.0825 23.0166 20.5302 22.4643 20.5302H14V7.84473Z" fill="#FDBA12"/>
<path d="M5.2334 20.5303L13.9998 12.6898L22.7661 20.5303H5.2334Z" fill="#FFDE55"/>
<path d="M14 12.6898V12.6905V20.5303H22.7659L14 12.6898Z" fill="#FFCE00"/>
<path d="M5.2334 7.84473L13.9998 16.3245L22.8329 7.84473H5.2334Z" fill="#FFAA00"/>
<path d="M22.9148 7.84473H14V16.3245L22.9148 7.84473Z" fill="#FF9500"/>
<path d="M20.1598 11.4427C21.9845 11.4427 23.4637 9.96348 23.4637 8.13879C23.4637 6.3141 21.9845 4.8349 20.1598 4.8349C18.3352 4.8349 16.856 6.3141 16.856 8.13879C16.856 9.96348 18.3352 11.4427 20.1598 11.4427Z" fill="#FF4A5E"/>
<path d="M19.8578 10.2005V7.29337L19.1911 7.9721L18.7046 7.46154L19.966 6.19415H20.7107V10.2005H19.8578Z" fill="white"/>
</g>
<defs>
<clipPath id="clip0">
<rect width="28" height="28" fill="white" transform="translate(0 0.1875)"/>
</clipPath>
</defs>
</svg>
