<svg width="90" height="60" viewBox="0 0 90 60" fill="none" xmlns="http://www.w3.org/2000/svg">
<rect width="90" height="60" rx="4" fill="#EAEDFD"/>
<path opacity="0.2" d="M4 60H76.5L0 9V56C0 58.2091 1.79086 60 4 60Z" fill="#BFCAF9"/>
<path d="M20.5 14.25C20.5 16.0449 19.0449 17.5 17.25 17.5C15.4551 17.5 14 16.0449 14 14.25C14 12.4551 15.4551 11 17.25 11C19.0449 11 20.5 12.4551 20.5 14.25Z" stroke="white"/>
<path d="M77.318 36V43.5" stroke="white" stroke-linecap="round"/>
<path d="M73.5 39.8181L81 39.8181" stroke="white" stroke-linecap="round"/>
<path d="M25.5 11.5C25.5 9.29086 27.2909 7.5 29.5 7.5H51.6118L63.7973 19.6855V48.5C63.7973 50.7091 62.0065 52.5 59.7973 52.5H29.5C27.2909 52.5 25.5 50.7091 25.5 48.5V11.5Z" fill="#B3C3E7"/>
<path d="M63.7973 30.1303L53.3525 19.6855H63.7973V30.1303Z" fill="#869ED2"/>
<rect x="31.7656" y="20.1077" width="27.8279" height="20.3327" stroke="white"/>
<ellipse rx="2.01796" ry="2.01796" transform="matrix(-1 0 0 1 52.8865 23.3554)" fill="white"/>
<path d="M52.9617 29.386C52.4158 28.648 51.051 28.648 50.5051 29.386L47.0248 34.0907C46.4789 34.8287 47.1613 35.7512 48.2531 35.7512H55.2137C56.3055 35.7512 56.9879 34.8287 56.442 34.0907L52.9617 29.386Z" fill="white"/>
<path d="M44.5282 25.3446C44.0149 24.6143 42.7316 24.6143 42.2183 25.3446L36.0587 34.1083C35.5454 34.8386 36.187 35.7515 37.2136 35.7515H49.5329C50.5595 35.7515 51.2012 34.8386 50.6879 34.1083L44.5282 25.3446Z" fill="white"/>
<path d="M51.6115 17.6855V7.5L63.797 19.6855H53.6115C52.5069 19.6855 51.6115 18.7901 51.6115 17.6855Z" fill="white"/>
</svg>
