<svg width="122" height="123" viewBox="0 0 122 123" fill="none" xmlns="http://www.w3.org/2000/svg">
<g clip-path="url(#clip0)">
<path d="M116.301 61.4993C116.301 90.7329 95.3345 114.989 67.8536 119.576C59.3989 102.561 42.2434 91.8325 23.4912 91.8325H8.77152C3.53094 82.9914 0.511851 72.6361 0.500034 61.5644C0.465767 29.4614 25.9968 3.09495 57.5747 2.64763C89.9306 2.1895 116.301 28.714 116.301 61.4993Z" fill="#6DC54A"/>
<path d="M15.755 101.311C13.1287 98.4055 10.7859 95.2308 8.77148 91.8325V21.3801H8.0625C7.0184 21.3801 6.17188 20.5196 6.17188 19.4583V11.2903C6.17188 10.2289 7.0184 9.36841 8.0625 9.36841H8.77148V3.60278C8.77148 1.61268 10.3587 -0.000732422 12.3164 -0.000732422H22.9512V98.4305C22.9512 102.266 18.308 104.135 15.755 101.311Z" fill="#453D83"/>
<path d="M69.9805 11.5305V19.6985C69.9805 20.7598 69.1339 21.6204 68.0898 21.6204H67.8535V119.396C67.7904 119.471 67.7417 119.529 67.6786 119.605C64.6577 120.1 61.5587 120.357 58.4004 120.357C43.7237 120.357 30.3222 114.806 20.1174 105.656C18.7698 104.448 17.9883 102.717 17.9883 100.89V3.60278C17.9883 1.61268 19.5755 -0.000732422 21.5332 -0.000732422H64.3086C66.2663 -0.000732422 67.8535 1.61268 67.8535 3.60278V9.60864H68.0898C69.1339 9.60864 69.9805 10.4692 69.9805 11.5305Z" fill="#51489A"/>
<path d="M31.8135 7.80688C30.8346 7.80688 30.041 7.00018 30.041 6.00513C30.041 5.01008 30.8346 4.20337 31.8135 4.20337C32.7923 4.20337 33.5859 5.01008 33.5859 6.00513C33.5859 7.00018 32.7923 7.80688 31.8135 7.80688ZM44.8115 4.20337H38.667C37.6881 4.20337 36.8945 5.01008 36.8945 6.00513C36.8945 7.00018 37.6881 7.80688 38.667 7.80688H44.8115C45.7904 7.80688 46.584 7.00018 46.584 6.00513C46.584 5.01008 45.7904 4.20337 44.8115 4.20337ZM41.6211 110.507H34.5312C32.8153 110.507 31.3841 111.747 31.0568 113.393C34.2666 115.144 37.6576 116.597 41.1938 117.714H41.6211C43.5788 117.714 45.166 116.101 45.166 114.111C45.166 112.12 43.5788 110.507 41.6211 110.507Z" fill="#19305C"/>
<path d="M61 26.425V102.099C61 104.089 59.4128 105.702 57.4551 105.702H20.1689C18.5739 104.276 17.0569 102.761 15.625 101.167V26.425C15.625 24.4349 17.2122 22.8215 19.1699 22.8215H57.4551C59.4128 22.8215 61 24.4349 61 26.425Z" fill="#FFF5F5"/>
<path d="M15.625 26.425V15.6145C15.625 13.6244 17.2122 12.011 19.1699 12.011H57.4551C59.4128 12.011 61 13.6244 61 15.6145V26.425H15.625Z" fill="#F44545"/>
<path d="M43.2754 21.1399H23.4238C22.3797 21.1399 21.5332 20.2794 21.5332 19.218C21.5332 18.1567 22.3797 17.2961 23.4238 17.2961H43.2754C44.3195 17.2961 45.166 18.1567 45.166 19.218C45.166 20.2794 44.3195 21.1399 43.2754 21.1399Z" fill="#C50048"/>
<path d="M19.1699 33.1516C19.1699 32.0903 20.0164 31.2297 21.0605 31.2297C22.1046 31.2297 22.9512 32.0903 22.9512 33.1516C22.9512 34.213 22.1046 35.0735 21.0605 35.0735C20.0164 35.0735 19.1699 34.213 19.1699 33.1516ZM21.0605 55.2532C20.0164 55.2532 19.1699 56.1137 19.1699 57.175C19.1699 58.2364 20.0164 59.0969 21.0605 59.0969C22.1046 59.0969 22.9512 58.2364 22.9512 57.175C22.9512 56.1137 22.1046 55.2532 21.0605 55.2532ZM21.0605 76.8743C20.0164 76.8743 19.1699 77.7348 19.1699 78.7961C19.1699 79.8575 20.0164 80.718 21.0605 80.718C22.1046 80.718 22.9512 79.8575 22.9512 78.7961C22.9512 77.7348 22.1046 76.8743 21.0605 76.8743Z" fill="#F44545"/>
<path d="M54.3583 40.0601L47.187 51.9886C46.8767 52.5047 46.3324 52.828 45.7378 52.8496C45.7168 52.8504 45.6955 52.8508 45.6745 52.8508C45.1033 52.8508 44.5654 52.5705 44.2319 52.0955L40.1609 46.2968C39.5923 45.4869 39.7771 44.3617 40.574 43.7837C41.3709 43.2054 42.4779 43.3933 43.0465 44.2036L45.5603 47.7841L51.3338 38.1805C51.844 37.3315 52.9347 37.0639 53.7706 37.5828C54.6058 38.1019 54.8688 39.2111 54.3583 40.0601Z" fill="#82CD64"/>
<path d="M26.2598 33.1516C26.2598 32.0903 27.1063 31.2297 28.1504 31.2297H48.002C49.0461 31.2297 49.8926 32.0903 49.8926 33.1516C49.8926 34.213 49.0461 35.0735 48.002 35.0735H28.1504C27.1063 35.0735 26.2598 34.213 26.2598 33.1516ZM28.1504 43.2415H36.1855C37.2296 43.2415 38.0762 42.3809 38.0762 41.3196C38.0762 40.2582 37.2296 39.3977 36.1855 39.3977H28.1504C27.1063 39.3977 26.2598 40.2582 26.2598 41.3196C26.2598 42.3809 27.1063 43.2415 28.1504 43.2415ZM48.002 55.2532H28.1504C27.1063 55.2532 26.2598 56.1137 26.2598 57.175C26.2598 58.2364 27.1063 59.0969 28.1504 59.0969H48.002C49.0461 59.0969 49.8926 58.2364 49.8926 57.175C49.8926 56.1137 49.0461 55.2532 48.002 55.2532ZM48.002 76.8743H28.1504C27.1063 76.8743 26.2598 77.7348 26.2598 78.7961C26.2598 79.8575 27.1063 80.718 28.1504 80.718H48.002C49.0461 80.718 49.8926 79.8575 49.8926 78.7961C49.8926 77.7348 49.0461 76.8743 48.002 76.8743ZM31.459 84.0813H28.1504C27.1063 84.0813 26.2598 84.9418 26.2598 86.0032C26.2598 87.0645 27.1063 87.925 28.1504 87.925H31.459C32.5031 87.925 33.3496 87.0645 33.3496 86.0032C33.3496 84.9418 32.5031 84.0813 31.459 84.0813ZM28.1504 67.2649H33.8223C34.8664 67.2649 35.7129 66.4044 35.7129 65.343C35.7129 64.2817 34.8664 63.4211 33.8223 63.4211H28.1504C27.1063 63.4211 26.2598 64.2817 26.2598 65.343C26.2598 66.4044 27.1063 67.2649 28.1504 67.2649Z" fill="#FFD993"/>
<path d="M91.25 57.6555H60.0547C58.0969 57.6555 56.5098 56.0421 56.5098 54.052V22.3411C56.5098 20.351 58.0969 18.7375 60.0547 18.7375H91.25C93.2077 18.7375 94.7949 20.351 94.7949 22.3411V54.052C94.7949 56.0421 93.2077 57.6555 91.25 57.6555Z" fill="#55A4F9"/>
<path d="M91.25 57.6555H66.4355C64.4778 57.6555 62.8906 56.0421 62.8906 54.052V22.3411C62.8906 20.351 64.4778 18.7375 66.4355 18.7375H91.25C93.2077 18.7375 94.7949 20.351 94.7949 22.3411V54.052C94.7949 56.0421 93.2077 57.6555 91.25 57.6555Z" fill="#86BEFB"/>
<path d="M81.7969 112.909H41.6211C39.6634 112.909 38.0762 111.296 38.0762 109.306V68.4661C38.0762 66.476 39.6634 64.8625 41.6211 64.8625H81.7969C83.7546 64.8625 85.3418 66.476 85.3418 68.4661V109.306C85.3418 111.296 83.7546 112.909 81.7969 112.909Z" fill="#FFB52D"/>
<path d="M81.7969 112.909H48.7109C46.7532 112.909 45.166 111.296 45.166 109.306V68.4661C45.166 66.476 46.7532 64.8625 48.7109 64.8625H81.7969C83.7546 64.8625 85.3418 66.476 85.3418 68.4661V109.306C85.3418 111.296 83.7546 112.909 81.7969 112.909Z" fill="#FFC14F"/>
<path d="M115.355 81.679H84.1602C82.2024 81.679 80.6152 80.0655 80.6152 78.0754V46.3645C80.6152 44.3744 82.2024 42.761 84.1602 42.761H115.355C117.313 42.761 118.9 44.3744 118.9 46.3645V78.0754C118.9 80.0655 117.313 81.679 115.355 81.679Z" fill="#C8E2FD"/>
<path d="M115.356 81.679H90.522C88.5642 81.679 86.9771 80.0655 86.9771 78.0754V46.3645C86.9771 44.3744 88.5642 42.761 90.522 42.761H115.356C117.314 42.761 118.901 44.3744 118.901 46.3645V78.0754C118.901 80.0655 117.314 81.679 115.356 81.679Z" fill="#E9F3FE"/>
<path d="M71.9867 92.0273L61.6089 107.879C61.1629 108.56 60.1784 108.56 59.7322 107.879L49.3543 92.0273C45.7666 86.5473 46.4799 79.2557 51.0587 74.6012C56.3671 69.205 64.9737 69.205 70.2824 74.6012C74.8612 79.2557 75.5744 86.5473 71.9867 92.0273Z" fill="#F44545"/>
<path d="M66.5251 83.7295C66.5251 87.0162 63.9039 89.6804 60.671 89.6804C57.438 89.6804 54.8169 87.0159 54.8169 83.7295C54.8169 80.4429 57.438 77.7787 60.671 77.7787C63.9039 77.7787 66.5251 80.4429 66.5251 83.7295Z" fill="#C50048"/>
<path d="M76.2853 38.4397L75.2918 39.4496C75.984 40.1533 75.984 41.2941 75.2918 41.9978C74.5996 42.7014 73.4773 42.7014 72.7851 41.9978L71.114 43.6965C71.8062 44.4001 71.8062 45.541 71.114 46.2446C70.4218 46.9483 69.2995 46.9483 68.6073 46.2446L67.354 47.5186C66.6618 48.2223 65.5395 48.2223 64.8473 47.5186C64.1551 46.815 64.1551 45.6741 64.8473 44.9704L73.7786 35.8915C72.1727 33.1279 72.5379 29.5085 74.874 27.1338C77.6428 24.3192 82.1318 24.3192 84.9004 27.1338C87.669 29.9484 87.6693 34.5116 84.9004 37.3259C82.5646 39.7009 79.004 40.0718 76.2853 38.4397Z" fill="#FFF5F5"/>
<path d="M81.5581 33.0793L79.0514 30.5311C78.3592 29.8275 78.3592 28.6866 79.0514 27.9829C79.7436 27.2793 80.8659 27.2793 81.5581 27.9829L84.0649 30.5311C84.7571 31.2348 84.7571 32.3756 84.0649 33.0793C83.3727 33.7829 82.2503 33.7829 81.5581 33.0793Z" fill="#55A4F9"/>
<path d="M111.574 62.4602C111.574 69.094 106.284 74.4719 99.7578 74.4719C93.2318 74.4719 87.9414 69.094 87.9414 62.4602C87.9414 55.8264 93.2318 50.4485 99.7578 50.4485C106.284 50.4485 111.574 55.8264 111.574 62.4602Z" fill="#2476ED"/>
<path d="M99.7578 48.6467C92.2648 48.6467 86.1689 54.8433 86.1689 62.4602C86.1689 70.0771 92.2648 76.2737 99.7578 76.2737C107.251 76.2737 113.347 70.0771 113.347 62.4602C113.347 54.8433 107.251 48.6467 99.7578 48.6467ZM109.645 60.6584H105.272C105.152 57.9534 104.757 55.3346 104.062 53.2362C106.94 54.6298 109.067 57.3744 109.645 60.6584ZM97.792 64.262H101.724C101.494 68.9713 100.4 71.7693 99.7578 72.5328C99.1155 71.7693 98.0217 68.9713 97.792 64.262ZM97.792 60.6584C98.0215 55.9491 99.1155 53.1511 99.7578 52.3877C100.4 53.1509 101.494 55.9491 101.724 60.6584H97.792ZM95.4533 53.2362C94.759 55.3344 94.3641 57.9532 94.2438 60.6584H89.8706C90.4481 57.3744 92.5756 54.6298 95.4533 53.2362ZM89.8706 64.262H94.2438C94.3641 66.967 94.7588 69.5858 95.4533 71.6842C92.5756 70.2906 90.4481 67.546 89.8706 64.262ZM104.062 71.6842C104.757 69.586 105.152 66.9672 105.272 64.262H109.645C109.067 67.546 106.94 70.2906 104.062 71.6842Z" fill="#76B6FA"/>
</g>
<defs>
<clipPath id="clip0">
<rect width="121" height="123" fill="white" transform="translate(0.5 -0.000732422)"/>
</clipPath>
</defs>
</svg>
