<?xml version="1.0" standalone="no"?>
<!DOCTYPE svg PUBLIC "-//W3C//DTD SVG 20010904//EN"
 "http://www.w3.org/TR/2001/REC-SVG-20010904/DTD/svg10.dtd">
<svg version="1.0" xmlns="http://www.w3.org/2000/svg"
 width="185.000000pt" height="40.000000pt" viewBox="0 0 185.000000 40.000000"
 preserveAspectRatio="xMidYMid meet">

<g transform="translate(0.000000,40.000000) scale(0.100000,-0.100000)"
fill="#3E65FF" stroke="none">
<path d="M211 356 c-9 -11 -121 -329 -121 -344 0 -2 19 -2 43 0 l42 3 57 165
c31 91 57 171 57 178 1 17 -64 16 -78 -2z"/>
<path d="M286 232 c-16 -48 -31 -93 -33 -99 -4 -9 7 -13 37 -13 50 0 80 14 80
38 0 21 -39 143 -49 154 -4 5 -20 -31 -35 -80z"/>
<path d="M502 198 c22 -68 44 -127 49 -132 4 -5 23 -6 43 -2 34 7 35 8 72 119
20 62 39 118 42 125 3 10 -4 13 -28 10 -32 -3 -33 -5 -59 -90 -15 -48 -29 -90
-33 -93 -5 -5 -35 83 -53 158 -6 23 -12 27 -40 27 l-34 0 41 -122z"/>
<path d="M1051 306 c-10 -11 -91 -228 -91 -242 0 -3 14 -4 32 -2 25 2 34 9 38
28 5 22 12 25 53 28 45 3 48 2 58 -27 9 -25 17 -31 41 -31 34 0 36 -11 -17
143 -40 116 -40 117 -71 117 -17 0 -37 -6 -43 -14z m63 -123 c7 -21 4 -23 -27
-23 l-35 0 16 51 17 51 11 -28 c6 -16 15 -39 18 -51z"/>
<path d="M1250 190 l0 -130 25 0 25 0 0 130 0 130 -25 0 -25 0 0 -130z"/>
<path d="M1750 280 c0 -11 -7 -23 -15 -26 -8 -4 -15 -15 -15 -25 0 -10 7 -19
15 -19 12 0 15 -14 15 -65 0 -70 11 -85 64 -85 31 0 35 25 6 40 -16 8 -20 21
-20 60 0 43 3 50 20 50 13 0 20 7 20 19 0 10 -9 21 -20 24 -12 3 -20 14 -20
26 0 16 -6 21 -25 21 -18 0 -25 -5 -25 -20z"/>
<path d="M29 239 c-13 -13 -18 -27 -14 -40 4 -12 17 -51 29 -87 l23 -67 36
108 36 107 -45 0 c-31 0 -50 -6 -65 -21z"/>
<path d="M820 253 c-8 -3 -21 -12 -27 -21 -12 -14 -13 -14 -13 1 0 12 -9 17
-30 17 l-31 0 3 -92 c3 -93 3 -93 30 -96 27 -3 27 -3 30 64 3 70 18 94 52 81
13 -5 16 -21 16 -77 l0 -70 30 0 30 0 0 74 c0 56 -4 79 -17 94 -20 23 -50 33
-73 25z"/>
<path d="M1394 246 c-60 -26 -69 -125 -16 -167 36 -28 107 -22 135 13 19 23
19 23 -3 26 -13 2 -34 -2 -47 -9 -27 -15 -56 -3 -61 25 -3 13 7 16 62 16 71 0
75 4 56 55 -6 15 -24 32 -45 40 -41 18 -42 18 -81 1z m72 -43 c17 -17 16 -18
-20 -21 -45 -4 -54 2 -36 23 16 20 35 19 56 -2z"/>
<path d="M1641 239 c-18 -19 -21 -20 -21 -6 0 11 -8 17 -25 17 -25 0 -25 0
-25 -95 0 -95 0 -95 25 -95 24 0 25 3 25 59 0 64 15 91 51 91 15 0 20 6 17 22
-4 30 -23 33 -47 7z"/>
</g>
</svg>
