<svg width="953" height="205" viewBox="0 0 953 205" fill="none" xmlns="http://www.w3.org/2000/svg">
<path d="M7.39282 100.3C3.19654 87.6443 9.87951 73.928 22.3129 69.6642C24.733 68.8295 27.2641 68.4009 29.8174 68.4009L71.6914 68.1753L34.5465 181.944L7.39282 100.3Z" fill="#3E64FF"/>
<path d="M160.858 27.1167L188.012 108.76C192.208 121.416 185.526 135.132 173.092 139.396C170.672 140.231 168.141 140.66 165.588 140.66L123.714 140.885L160.858 27.1167Z" fill="#3E64FF"/>
<path d="M118.895 10.197C110.325 10.1519 102.71 15.7467 100.045 24.0261L43.9395 197.803H76.111C84.7256 197.849 92.3633 192.231 95.0276 183.929L151.133 10.197H118.895Z" fill="#3E64FF"/>
<path d="M257.482 36.6366L286.656 133.711C286.723 133.959 286.967 134.14 287.211 134.14H287.433C287.699 134.14 287.922 133.959 287.988 133.711L317.162 36.6366C317.229 36.3885 317.473 36.208 317.717 36.208H352.065C352.398 36.208 352.642 36.4787 352.642 36.8171C352.642 36.8848 352.642 36.9525 352.62 36.9976L313.454 154.94C310.479 163.873 302.242 169.874 292.961 169.874H266.563C266.318 169.874 266.096 169.716 266.008 169.468L222.046 36.9976C221.935 36.6818 222.113 36.3434 222.402 36.2531C222.468 36.2306 222.535 36.2306 222.602 36.2306H256.949C257.193 36.208 257.415 36.3885 257.482 36.6366Z" fill="#3E64FF"/>
<path d="M386.613 112.709V169.288C386.613 169.627 386.346 169.875 386.036 169.875H355.796C355.463 169.875 355.218 169.604 355.218 169.288V70.2286C355.218 69.8902 355.485 69.6421 355.796 69.6421H384.504C384.837 69.6421 385.081 69.9128 385.081 70.2286V87.4417C385.081 87.7801 385.347 88.0282 385.658 88.0282H385.747C385.991 88.0282 386.213 87.8703 386.302 87.6447C388.5 81.6889 392.186 76.9965 397.337 73.5674C402.599 70.0707 408.882 68.311 416.164 68.311C423.114 68.311 429.131 69.8902 434.237 73.0486C439.344 76.2069 443.34 80.6061 446.182 86.2234C449.024 91.8634 450.445 98.4508 450.401 105.963V169.266C450.401 169.604 450.134 169.852 449.824 169.852H419.584C419.251 169.852 419.006 169.582 419.006 169.266V112.257C419.051 106.685 417.674 102.331 414.855 99.1953C412.057 96.0595 408.172 94.4803 403.198 94.5028C399.89 94.5028 397.004 95.2248 394.495 96.6911C392.008 98.135 389.988 100.301 388.722 102.918C387.346 105.625 386.635 108.873 386.613 112.709Z" fill="#3E64FF"/>
<path d="M507.126 169.875H474.2C473.867 169.875 473.622 169.604 473.622 169.288C473.622 169.22 473.622 169.153 473.645 169.108L512.81 51.1655C515.785 42.2318 524.022 36.231 533.303 36.231H559.702C559.946 36.231 560.168 36.3889 560.257 36.637L604.24 169.13C604.329 169.446 604.174 169.784 603.863 169.875C603.796 169.897 603.752 169.897 603.685 169.897H570.759C570.492 169.897 570.27 169.717 570.204 169.491L539.564 70.3412C539.497 70.0931 539.253 69.9351 539.009 69.9126H538.831C538.565 69.9126 538.343 70.0931 538.276 70.3412L507.703 169.514C507.615 169.717 507.393 169.875 507.126 169.875ZM503.574 117.265H573.823C574.156 117.265 574.4 117.536 574.4 117.852V141.224C574.4 141.562 574.134 141.81 573.823 141.81H503.574C503.241 141.81 502.996 141.54 502.996 141.224V117.875C502.996 117.536 503.263 117.265 503.574 117.265Z" fill="#3E64FF"/>
<path d="M650.111 36.7946V169.288C650.111 169.626 649.844 169.874 649.533 169.874H619.294C618.961 169.874 618.716 169.604 618.716 169.288V36.7946C618.716 36.4562 618.983 36.208 619.294 36.208H649.533C649.844 36.208 650.111 36.4787 650.111 36.7946Z" fill="#3E64FF"/>
<path d="M716.142 171.77C705.818 171.77 696.915 169.694 689.455 165.543C681.972 161.392 676.244 155.437 672.248 147.721C668.251 140.006 666.231 130.801 666.231 120.131C666.231 109.776 668.251 100.707 672.27 92.9462C676.288 85.1857 681.972 79.1397 689.299 74.8082C696.626 70.4768 705.263 68.311 715.187 68.311C722.203 68.311 728.642 69.4165 734.459 71.6499C740.143 73.7705 745.294 77.1319 749.557 81.5085C753.797 85.8625 757.106 91.2317 759.459 97.5935C761.813 103.955 762.989 111.265 762.989 119.499V126.876C762.989 127.214 762.723 127.463 762.412 127.463H677.82C677.487 127.463 677.243 127.192 677.243 126.876V109.528C677.243 109.189 677.51 108.941 677.82 108.941H733.127C733.46 108.941 733.704 108.67 733.704 108.355V108.332C733.571 105.174 732.794 102.354 731.351 99.8721C729.841 97.2551 727.643 95.0894 725.023 93.6456C722.336 92.1341 719.272 91.3896 715.809 91.3896C712.301 91.3896 709.148 92.1792 706.373 93.7809C703.642 95.315 701.377 97.5484 699.756 100.233C698.136 102.94 697.27 106.031 697.181 109.46V128.32C697.181 132.403 697.98 135.99 699.557 139.058C701.066 142.059 703.42 144.54 706.306 146.21C709.215 147.902 712.678 148.759 716.719 148.759C719.295 148.782 721.848 148.398 724.29 147.586C726.466 146.864 728.442 145.691 730.13 144.134C731.661 142.69 732.883 140.908 733.638 138.9C733.726 138.675 733.948 138.517 734.193 138.517L761.924 139.329C762.257 139.329 762.501 139.622 762.501 139.938C762.501 139.961 762.501 140.006 762.501 140.028C761.257 146.3 758.66 151.782 754.752 156.474C750.711 161.325 745.405 165.092 738.855 167.754C732.328 170.416 724.757 171.77 716.142 171.77Z" fill="#3E64FF"/>
<path d="M779.088 169.288V70.2289C779.088 69.8905 779.354 69.6424 779.665 69.6424H808.994C809.327 69.6424 809.572 69.9131 809.572 70.2289V87.3066C809.572 87.645 809.838 87.8931 810.149 87.8931C810.415 87.8931 810.637 87.7127 810.704 87.4645C812.502 81.0576 815.411 76.2749 819.385 73.1165C823.448 69.868 828.177 68.2437 833.573 68.2437C835.082 68.2437 836.57 68.3339 838.08 68.5369C839.39 68.6948 840.678 68.943 841.965 69.304C842.209 69.3716 842.387 69.6198 842.387 69.868V96.353C842.387 96.6914 842.121 96.9396 841.788 96.9396C841.721 96.9396 841.677 96.9396 841.632 96.917C839.945 96.4433 838.235 96.1049 836.503 95.9244C834.372 95.6311 832.218 95.4958 830.042 95.4732C826.312 95.4732 822.96 96.3079 819.985 97.9773C817.054 99.6016 814.634 102.015 812.991 104.971C811.304 107.949 810.46 111.445 810.46 115.439V169.266C810.46 169.604 810.193 169.852 809.883 169.852H779.643C779.354 169.875 779.088 169.627 779.088 169.288Z" fill="#3E64FF"/>
<path d="M918.608 70.2284V92.5399C918.608 92.8783 918.342 93.1264 918.031 93.1264H856.952C856.619 93.1264 856.375 92.8557 856.375 92.5399V70.2284C856.375 69.89 856.641 69.6418 856.952 69.6418H918.031C918.342 69.6192 918.608 69.89 918.608 70.2284ZM869.985 45.6157H900.225C900.558 45.6157 900.802 45.8864 900.802 46.2023V138.359C900.802 140.321 901.113 141.901 901.734 143.096C902.312 144.247 903.289 145.149 904.465 145.645C905.664 146.142 907.107 146.39 908.773 146.39C910.06 146.39 911.326 146.255 912.591 146.029C913.613 145.848 914.434 145.691 915.078 145.555C915.389 145.488 915.7 145.691 915.766 146.006L920.296 167.912C920.362 168.228 920.185 168.521 919.874 168.611C918.409 169.017 916.477 169.514 914.079 170.1C911.37 170.754 908.107 171.16 904.354 171.341C896.983 171.679 890.678 170.799 885.438 168.701C880.198 166.581 876.179 163.287 873.426 158.82C870.673 154.331 869.319 148.714 869.408 141.923V46.2023C869.408 45.8864 869.652 45.6157 869.985 45.6157Z" fill="#3E64FF"/>
<path d="M928.932 33.929V22.9424H932.795C933.639 22.9424 934.327 23.1003 934.882 23.371C935.437 23.6643 935.859 24.0704 936.125 24.5892C936.392 25.1081 936.547 25.6947 936.547 26.3715C936.547 27.0482 936.414 27.6348 936.125 28.1537C935.859 28.6725 935.437 29.0561 934.882 29.3493C934.327 29.6426 933.639 29.778 932.795 29.778H929.864V28.3567H932.64C933.173 28.3567 933.594 28.289 933.927 28.1311C934.26 27.9732 934.505 27.7476 934.66 27.4543C934.816 27.161 934.882 26.8001 934.882 26.394C934.882 25.9879 934.793 25.627 934.638 25.3112C934.482 25.0179 934.238 24.7697 933.905 24.6118C933.572 24.4539 933.128 24.3636 932.595 24.3636H930.553V33.929H928.932ZM934.26 28.9884L936.925 33.9515H935.06L932.44 28.9884H934.26Z" fill="#3E64FF"/>
<path d="M932.528 40.0426C926.4 40.0426 921.427 34.9892 921.427 28.7628C921.427 22.5363 926.4 17.4829 932.528 17.4829C938.656 17.4829 943.629 22.5363 943.629 28.7628C943.629 34.9892 938.656 40.0426 932.528 40.0426ZM932.528 18.3402C926.866 18.3402 922.27 23.01 922.27 28.7628C922.27 34.5155 926.866 39.1853 932.528 39.1853C938.189 39.1853 942.785 34.5155 942.785 28.7628C942.785 23.01 938.189 18.3402 932.528 18.3402Z" fill="#3E64FF"/>
<path d="M932.531 40.3135C926.247 40.3135 921.163 35.1248 921.163 28.763C921.163 22.4011 926.27 17.2124 932.531 17.2124C938.814 17.2124 943.898 22.4011 943.898 28.763C943.898 35.1248 938.814 40.3135 932.531 40.3135ZM932.531 17.7764C926.58 17.7764 921.718 22.6944 921.718 28.763C921.718 34.8315 926.558 39.7495 932.531 39.7495C938.503 39.7495 943.343 34.8315 943.343 28.763C943.343 22.6944 938.503 17.7764 932.531 17.7764ZM932.531 39.4788C926.714 39.4788 921.984 34.6736 921.984 28.763C921.984 22.8523 926.714 18.0471 932.531 18.0471C938.348 18.0471 943.077 22.8523 943.077 28.763C943.077 34.6736 938.348 39.4788 932.531 39.4788ZM932.531 18.6337C927.024 18.6337 922.562 23.1682 922.562 28.763C922.562 34.3578 927.024 38.8923 932.531 38.8923C938.037 38.8923 942.5 34.3578 942.5 28.763C942.5 23.1682 938.037 18.6337 932.531 18.6337Z" fill="#3E64FF"/>
</svg>
