<svg width="24" height="24" viewBox="0 0 24 24" fill="none" xmlns="http://www.w3.org/2000/svg">
<path fill-rule="evenodd" clip-rule="evenodd" d="M0 12C0 5.37258 5.37258 0 12 0C18.6274 0 24 5.37258 24 12C24 18.6274 18.6274 24 12 24C5.37258 24 0 18.6274 0 12Z" fill="#13C383"/>
<g clip-path="url(#clip0)">
<path fill-rule="evenodd" clip-rule="evenodd" d="M19.2622 8.83579H17.9062V7.49859C17.9062 6.75054 17.2977 6.12373 16.5502 6.12373H5.64167C4.89397 6.12373 4.28564 6.73206 4.28564 7.47976V15.6159C4.28564 16.8621 5.29949 17.876 6.54569 17.876H17.4542C18.7004 17.876 19.7142 16.8621 19.7142 15.6159V9.2878C19.7142 9.03813 19.5119 8.83579 19.2622 8.83579ZM16.0981 7.47976C16.0981 7.22645 16.3063 7.02092 16.5632 7.02799C16.8052 7.03458 17.0022 7.24575 17.0022 7.49859V14.2599H16.0981V7.47976ZM18.8102 15.6159C18.8102 16.3636 18.2019 16.9719 17.4542 16.9719C16.7065 16.9719 16.0981 16.3636 16.0981 15.6159V15.1639H17.4542C17.7038 15.1639 17.9062 14.9616 17.9062 14.7119V9.7398H18.8102V15.6159ZM13.8381 7.93208H6.54568C6.29602 7.93208 6.09367 8.13443 6.09367 8.38409C6.09367 8.63376 6.29602 8.8361 6.54568 8.8361H13.8381C14.0878 8.8361 14.2901 8.63376 14.2901 8.38409C14.2901 8.13443 14.0878 7.93208 13.8381 7.93208ZM6.54568 9.74007H13.8381C14.0878 9.74007 14.2901 9.94241 14.2901 10.1921C14.2901 10.4417 14.0878 10.6441 13.8381 10.6441H6.54568C6.29602 10.6441 6.09367 10.4417 6.09367 10.1921C6.09367 9.94241 6.29602 9.74007 6.54568 9.74007ZM10.222 11.548H6.5758C6.32614 11.548 6.12379 11.7504 6.12379 12.0001V15.6161C6.12379 15.8658 6.32614 16.0681 6.5758 16.0681H10.222C10.4717 16.0681 10.674 15.8658 10.674 15.6161V12.0001C10.674 11.7504 10.4717 11.548 10.222 11.548ZM9.77 15.1641H7.02781V12.4521H9.77V15.1641ZM11.9999 11.548H13.8381C14.0878 11.548 14.2901 11.7504 14.2901 12.0001C14.2901 12.2497 14.0878 12.4521 13.8381 12.4521H11.9999C11.7503 12.4521 11.5479 12.2497 11.5479 12.0001C11.5479 11.7504 11.7503 11.548 11.9999 11.548ZM13.8381 13.356H11.9999C11.7503 13.356 11.5479 13.5584 11.5479 13.808C11.5479 14.0577 11.7503 14.2601 11.9999 14.2601H13.8381C14.0878 14.2601 14.2901 14.0577 14.2901 13.808C14.2901 13.5584 14.0878 13.356 13.8381 13.356ZM11.9999 15.164H13.8381C14.0878 15.164 14.2901 15.3664 14.2901 15.616C14.2901 15.8657 14.0878 16.068 13.8381 16.068H11.9999C11.7503 16.068 11.5479 15.8657 11.5479 15.616C11.5479 15.3664 11.7503 15.164 11.9999 15.164Z" fill="white"/>
</g>
<defs>
<clipPath id="clip0">
<rect width="15.4286" height="15.4286" fill="white" transform="translate(4.28564 4.28572)"/>
</clipPath>
</defs>
</svg>
