<svg width="337" height="63" viewBox="0 0 337 63" fill="none" xmlns="http://www.w3.org/2000/svg">
<path d="M16.6943 26H12.8857V18.0781H5.45898V26H1.65039V7.51562H5.45898V15.0059H12.8857V7.51562H16.6943V26ZM31.1543 17.9893H23.8418V22.9404H32.4238V26H20.0332V7.51562H32.3984V10.6006H23.8418V15.0059H31.1543V17.9893ZM31.3193 6.08105V6.2334H28.3994L26.4443 4.39258L24.4893 6.2334H21.6201V6.03027L25.3779 2.52637H27.5107L31.3193 6.08105ZM24.4131 28.8438C24.4131 28.3359 24.6035 27.917 24.9844 27.5869C25.3652 27.2568 25.8561 27.0918 26.457 27.0918C27.0664 27.0918 27.5615 27.2568 27.9424 27.5869C28.3232 27.917 28.5137 28.3359 28.5137 28.8438C28.5137 29.3431 28.3232 29.762 27.9424 30.1006C27.57 30.4391 27.0749 30.6084 26.457 30.6084C25.8392 30.6084 25.3441 30.4391 24.9717 30.1006C24.5993 29.762 24.4131 29.3431 24.4131 28.8438ZM54.2852 10.6006H48.623V26H44.8145V10.6006H39.2285V7.51562H54.2852V10.6006ZM71.5127 26H67.7041V18.0781H60.2773V26H56.4688V7.51562H60.2773V15.0059H67.7041V7.51562H71.5127V26ZM90.0352 17.1768C90.0352 18.9964 89.7135 20.5918 89.0703 21.9629C88.4271 23.334 87.5046 24.3919 86.3027 25.1367C85.1094 25.8815 83.7383 26.2539 82.1895 26.2539C80.6576 26.2539 79.2907 25.8857 78.0889 25.1494C76.887 24.4131 75.9561 23.3636 75.2959 22.001C74.6357 20.6299 74.3014 19.0557 74.293 17.2783V16.3643C74.293 14.5446 74.6188 12.945 75.2705 11.5654C75.9307 10.1774 76.8574 9.11523 78.0508 8.37891C79.2526 7.63411 80.6237 7.26172 82.1641 7.26172C83.7044 7.26172 85.0713 7.63411 86.2646 8.37891C87.4665 9.11523 88.3932 10.1774 89.0449 11.5654C89.7051 12.945 90.0352 14.5404 90.0352 16.3516V17.1768ZM86.1758 16.3389C86.1758 14.4007 85.8288 12.9281 85.1348 11.9209C84.4408 10.9137 83.4505 10.4102 82.1641 10.4102C80.8861 10.4102 79.9001 10.9095 79.2061 11.9082C78.512 12.8984 78.1608 14.3542 78.1523 16.2754V17.1768C78.1523 19.0641 78.4993 20.5283 79.1934 21.5693C79.8874 22.6104 80.8861 23.1309 82.1895 23.1309C83.4674 23.1309 84.4492 22.6315 85.1348 21.6328C85.8203 20.6257 86.1673 19.1615 86.1758 17.2402V16.3389ZM81.1104 3.59277H83.1797L86.7979 6.5127H84.0557L82.1387 4.91309L80.2217 6.5127H77.4922L81.1104 3.59277ZM87.9277 1.3584H90.8604L87.9785 4.81152H85.8584L87.9277 1.3584ZM107.834 26H104.025L96.6113 13.8379V26H92.8027V7.51562H96.6113L104.038 19.7031V7.51562H107.834V26ZM125.785 23.6641C125.1 24.485 124.131 25.124 122.878 25.5811C121.625 26.0296 120.237 26.2539 118.714 26.2539C117.114 26.2539 115.709 25.9069 114.499 25.2129C113.297 24.5104 112.366 23.4948 111.706 22.166C111.054 20.8372 110.72 19.2757 110.703 17.4814V16.2246C110.703 14.3796 111.012 12.7842 111.63 11.4385C112.256 10.0843 113.153 9.05176 114.321 8.34082C115.498 7.62142 116.873 7.26172 118.447 7.26172C120.639 7.26172 122.353 7.78646 123.589 8.83594C124.825 9.87695 125.557 11.3962 125.785 13.3936H122.078C121.909 12.3356 121.532 11.5612 120.948 11.0703C120.373 10.5794 119.577 10.334 118.562 10.334C117.267 10.334 116.281 10.8206 115.604 11.7939C114.926 12.7673 114.584 14.2145 114.575 16.1357V17.3164C114.575 19.2546 114.943 20.7188 115.68 21.709C116.416 22.6992 117.495 23.1943 118.917 23.1943C120.347 23.1943 121.367 22.8896 121.977 22.2803V19.0938H118.511V16.2881H125.785V23.6641ZM150.401 26H146.593V18.0781H139.166V26H135.357V7.51562H139.166V15.0059H146.593V7.51562H150.401V26ZM168.924 17.1768C168.924 18.9964 168.602 20.5918 167.959 21.9629C167.316 23.334 166.393 24.3919 165.191 25.1367C163.998 25.8815 162.627 26.2539 161.078 26.2539C159.546 26.2539 158.179 25.8857 156.978 25.1494C155.776 24.4131 154.845 23.3636 154.185 22.001C153.524 20.6299 153.19 19.0557 153.182 17.2783V16.3643C153.182 14.5446 153.507 12.945 154.159 11.5654C154.819 10.1774 155.746 9.11523 156.939 8.37891C158.141 7.63411 159.512 7.26172 161.053 7.26172C162.593 7.26172 163.96 7.63411 165.153 8.37891C166.355 9.11523 167.282 10.1774 167.934 11.5654C168.594 12.945 168.924 14.5404 168.924 16.3516V17.1768ZM165.064 16.3389C165.064 14.4007 164.717 12.9281 164.023 11.9209C163.329 10.9137 162.339 10.4102 161.053 10.4102C159.775 10.4102 158.789 10.9095 158.095 11.9082C157.401 12.8984 157.049 14.3542 157.041 16.2754V17.1768C157.041 19.0641 157.388 20.5283 158.082 21.5693C158.776 22.6104 159.775 23.1309 161.078 23.1309C162.356 23.1309 163.338 22.6315 164.023 21.6328C164.709 20.6257 165.056 19.1615 165.064 17.2402V16.3389ZM165.699 6.65234H163.071L161.053 5.05273L159.021 6.65234H156.394L160.05 3.7959H162.056L165.699 6.65234ZM164.341 1.0918C164.341 1.64193 164.172 2.11165 163.833 2.50098C163.494 2.88184 163.084 3.07227 162.602 3.07227C162.212 3.07227 161.743 2.93685 161.192 2.66602C160.642 2.39518 160.219 2.25977 159.923 2.25977C159.72 2.25977 159.555 2.34863 159.428 2.52637C159.309 2.7041 159.25 2.91569 159.25 3.16113L157.968 2.79297C157.968 2.24284 158.133 1.77311 158.463 1.38379C158.793 0.994466 159.195 0.799805 159.669 0.799805C160.016 0.799805 160.473 0.93099 161.04 1.19336C161.607 1.45573 162.047 1.58691 162.36 1.58691C162.563 1.58691 162.729 1.48958 162.855 1.29492C162.982 1.0918 163.046 0.867513 163.046 0.62207L164.341 1.0918ZM191.318 10.6006H185.656V26H181.848V10.6006H176.262V7.51562H191.318V10.6006ZM200.345 19.2334H197.311V26H193.502V7.51562H200.37C202.554 7.51562 204.238 8.00228 205.423 8.97559C206.608 9.94889 207.2 11.3242 207.2 13.1016C207.2 14.3626 206.925 15.4163 206.375 16.2627C205.833 17.1006 205.008 17.7692 203.899 18.2686L207.898 25.8223V26H203.811L200.345 19.2334ZM197.311 16.1484H200.383C201.339 16.1484 202.08 15.9072 202.604 15.4248C203.129 14.9339 203.392 14.2611 203.392 13.4062C203.392 12.5345 203.142 11.849 202.643 11.3496C202.152 10.8503 201.394 10.6006 200.37 10.6006H197.311V16.1484ZM225.215 17.1768C225.215 18.9964 224.893 20.5918 224.25 21.9629C223.607 23.334 222.684 24.3919 221.482 25.1367C220.289 25.8815 218.918 26.2539 217.369 26.2539C215.837 26.2539 214.47 25.8857 213.269 25.1494C212.067 24.4131 211.136 23.3636 210.476 22.001C209.815 20.6299 209.481 19.0557 209.473 17.2783V16.3643C209.473 14.5446 209.799 12.945 210.45 11.5654C211.11 10.1774 212.037 9.11523 213.23 8.37891C214.432 7.63411 215.803 7.26172 217.344 7.26172C218.503 7.26172 219.557 7.46908 220.505 7.88379C221.461 8.29004 222.286 8.87826 222.98 9.64844C223.598 9.49609 224.021 9.11523 224.25 8.50586C224.479 7.89648 224.593 7.10091 224.593 6.11914H227.081C227.081 9.0306 226.116 10.8122 224.187 11.4639C224.855 12.8604 225.198 14.4515 225.215 16.2373V17.1768ZM221.355 16.3389C221.355 14.4007 221.008 12.9281 220.314 11.9209C219.62 10.9137 218.63 10.4102 217.344 10.4102C216.066 10.4102 215.08 10.9095 214.386 11.9082C213.692 12.8984 213.34 14.3542 213.332 16.2754V17.1768C213.332 19.0641 213.679 20.5283 214.373 21.5693C215.067 22.6104 216.066 23.1309 217.369 23.1309C218.647 23.1309 219.629 22.6315 220.314 21.6328C221 20.6257 221.347 19.1615 221.355 17.2402V16.3389ZM215.071 28.9707C215.071 28.4629 215.262 28.0439 215.643 27.7139C216.023 27.3838 216.514 27.2188 217.115 27.2188C217.725 27.2188 218.22 27.3838 218.601 27.7139C218.981 28.0439 219.172 28.4629 219.172 28.9707C219.172 29.4701 218.981 29.889 218.601 30.2275C218.228 30.5661 217.733 30.7354 217.115 30.7354C216.497 30.7354 216.002 30.5661 215.63 30.2275C215.257 29.889 215.071 29.4701 215.071 28.9707ZM249.971 17.1768C249.971 18.9033 249.691 20.4056 249.133 21.6836C248.574 22.9531 247.8 23.973 246.81 24.7432L249.882 27.1553L247.457 29.3008L243.521 26.1396C243.073 26.2158 242.607 26.2539 242.125 26.2539C240.593 26.2539 239.226 25.8857 238.024 25.1494C236.823 24.4131 235.892 23.3636 235.231 22.001C234.571 20.6299 234.237 19.0557 234.229 17.2783V16.3643C234.229 14.5446 234.554 12.945 235.206 11.5654C235.866 10.1774 236.793 9.11523 237.986 8.37891C239.188 7.63411 240.559 7.26172 242.1 7.26172C243.64 7.26172 245.007 7.63411 246.2 8.37891C247.402 9.11523 248.329 10.1774 248.98 11.5654C249.641 12.945 249.971 14.5404 249.971 16.3516V17.1768ZM246.111 16.3389C246.111 14.4007 245.764 12.9281 245.07 11.9209C244.376 10.9137 243.386 10.4102 242.1 10.4102C240.822 10.4102 239.836 10.9095 239.142 11.9082C238.448 12.8984 238.096 14.3542 238.088 16.2754V17.1768C238.088 19.0641 238.435 20.5283 239.129 21.5693C239.823 22.6104 240.822 23.1309 242.125 23.1309C243.403 23.1309 244.385 22.6315 245.07 21.6328C245.756 20.6257 246.103 19.1615 246.111 17.2402V16.3389ZM266.754 7.51562V19.6904C266.754 21.7132 266.119 23.3128 264.85 24.4893C263.589 25.6657 261.862 26.2539 259.67 26.2539C257.512 26.2539 255.798 25.6826 254.528 24.54C253.259 23.3975 252.611 21.8275 252.586 19.8301V7.51562H256.395V19.7158C256.395 20.9261 256.682 21.8105 257.258 22.3691C257.842 22.9193 258.646 23.1943 259.67 23.1943C261.811 23.1943 262.899 22.0687 262.933 19.8174V7.51562H266.754ZM280.033 22.1914H273.355L272.086 26H268.036L274.917 7.51562H278.446L285.365 26H281.315L280.033 22.1914ZM274.384 19.1064H279.005L276.682 12.1875L274.384 19.1064ZM275.349 6.00488L275.158 4.30371C275.776 4.26986 276.22 4.19368 276.491 4.0752C276.771 3.94824 276.91 3.74935 276.91 3.47852C276.91 2.89453 276.309 2.60254 275.107 2.60254L275.196 0.888672C276.787 0.888672 277.985 1.10872 278.789 1.54883C279.602 1.98893 280.008 2.59408 280.008 3.36426C280.008 3.86361 279.834 4.27409 279.487 4.5957C279.14 4.90885 278.679 5.10775 278.104 5.19238V6.00488H275.349ZM302.123 26H298.314L290.9 13.8379V26H287.092V7.51562H290.9L298.327 19.7031V7.51562H302.123V26ZM315.732 22.9404H323.819V26H311.924V7.51562H315.732V22.9404ZM328.834 15.8438L332.681 7.51562H336.845L330.776 19.2969V26H326.904V19.2969L320.836 7.51562H325.013L328.834 15.8438ZM329.608 2.56445H333.607L330.091 6.5H327.107L329.608 2.56445ZM15.5645 42.6006H9.90234V58H6.09375V42.6006H0.507812V39.5156H15.5645V42.6006ZM32.792 58H28.9834V50.0781H21.5566V58H17.748V39.5156H21.5566V47.0059H28.9834V39.5156H32.792V58ZM51.3145 49.1768C51.3145 50.9964 50.9928 52.5918 50.3496 53.9629C49.7064 55.334 48.7839 56.3919 47.582 57.1367C46.3887 57.8815 45.0176 58.2539 43.4688 58.2539C41.9368 58.2539 40.57 57.8857 39.3682 57.1494C38.1663 56.4131 37.2354 55.3636 36.5752 54.001C35.915 52.6299 35.5807 51.0557 35.5723 49.2783V48.3643C35.5723 46.5446 35.8981 44.945 36.5498 43.5654C37.21 42.1774 38.1367 41.1152 39.3301 40.3789C40.5319 39.6341 41.903 39.2617 43.4434 39.2617C44.9837 39.2617 46.3506 39.6341 47.5439 40.3789C48.7458 41.1152 49.6725 42.1774 50.3242 43.5654C50.9844 44.945 51.3145 46.5404 51.3145 48.3516V49.1768ZM47.4551 48.3389C47.4551 46.4007 47.1081 44.9281 46.4141 43.9209C45.7201 42.9137 44.7298 42.4102 43.4434 42.4102C42.1654 42.4102 41.1794 42.9095 40.4854 43.9082C39.7913 44.8984 39.4401 46.3542 39.4316 48.2754V49.1768C39.4316 51.0641 39.7786 52.5283 40.4727 53.5693C41.1667 54.6104 42.1654 55.1309 43.4688 55.1309C44.7467 55.1309 45.7285 54.6315 46.4141 53.6328C47.0996 52.6257 47.4466 51.1615 47.4551 49.2402V48.3389ZM48.3184 38.1191V38.2715H45.3984L43.4434 36.4307L41.4883 38.2715H38.6191V38.0684L42.377 34.5645H44.5098L48.3184 38.1191ZM69.1133 58H65.3047L57.8906 45.8379V58H54.082V39.5156H57.8906L65.3174 51.7031V39.5156H69.1133V58ZM87.0645 55.6641C86.3789 56.485 85.4098 57.124 84.1572 57.5811C82.9046 58.0296 81.5166 58.2539 79.9932 58.2539C78.3936 58.2539 76.9886 57.9069 75.7783 57.2129C74.5765 56.5104 73.6455 55.4948 72.9854 54.166C72.3337 52.8372 71.9993 51.2757 71.9824 49.4814V48.2246C71.9824 46.3796 72.2913 44.7842 72.9092 43.4385C73.5355 42.0843 74.4326 41.0518 75.6006 40.3408C76.777 39.6214 78.1523 39.2617 79.7266 39.2617C81.9186 39.2617 83.6325 39.7865 84.8682 40.8359C86.1038 41.877 86.8359 43.3962 87.0645 45.3936H83.3574C83.1882 44.3356 82.8115 43.5612 82.2275 43.0703C81.652 42.5794 80.8564 42.334 79.8408 42.334C78.5459 42.334 77.5599 42.8206 76.8828 43.7939C76.2057 44.7673 75.863 46.2145 75.8545 48.1357V49.3164C75.8545 51.2546 76.2227 52.7188 76.959 53.709C77.6953 54.6992 78.7744 55.1943 80.1963 55.1943C81.6266 55.1943 82.6465 54.8896 83.2559 54.2803V51.0938H79.79V48.2881H87.0645V55.6641ZM109.789 42.6006H104.127V58H100.318V42.6006H94.7324V39.5156H109.789V42.6006ZM116.022 58H112.214V39.5156H116.022V58ZM134.596 58H130.787L123.373 45.8379V58H119.564V39.5156H123.373L130.8 51.7031V39.5156H134.596V58ZM157.549 42.6006H151.887V58H148.078V42.6006H142.492V39.5156H157.549V42.6006ZM163.782 58H159.974V39.5156H163.782V58ZM160.481 37.9668L160.291 36.2656C160.909 36.2318 161.353 36.1556 161.624 36.0371C161.903 35.9102 162.043 35.7113 162.043 35.4404C162.043 34.8564 161.442 34.5645 160.24 34.5645L160.329 32.8506C161.92 32.8506 163.118 33.0706 163.922 33.5107C164.734 33.9508 165.141 34.556 165.141 35.3262C165.141 35.8255 164.967 36.236 164.62 36.5576C164.273 36.8708 163.812 37.0697 163.236 37.1543V37.9668H160.481ZM182.355 58H178.547L171.133 45.8379V58H167.324V39.5156H171.133L178.56 51.7031V39.5156H182.355V58ZM200.726 58H196.917V50.0781H189.49V58H185.682V39.5156H189.49V47.0059H196.917V39.5156H200.726V58ZM214.348 51.4873V58H210.539V39.5156H217.75C219.138 39.5156 220.357 39.7695 221.406 40.2773C222.464 40.7852 223.277 41.5088 223.844 42.4482C224.411 43.3792 224.694 44.4414 224.694 45.6348C224.694 47.446 224.072 48.8763 222.828 49.9258C221.592 50.9668 219.879 51.4873 217.687 51.4873H214.348ZM214.348 48.4023H217.75C218.757 48.4023 219.523 48.1654 220.048 47.6914C220.581 47.2174 220.848 46.5404 220.848 45.6602C220.848 44.7546 220.581 44.0225 220.048 43.4639C219.515 42.9053 218.778 42.6175 217.839 42.6006H214.348V48.4023ZM242.366 58H238.558V50.0781H231.131V58H227.322V39.5156H231.131V47.0059H238.558V39.5156H242.366V58ZM259.695 39.5156V51.6904C259.695 53.7132 259.061 55.3128 257.791 56.4893C256.53 57.6657 254.803 58.2539 252.611 58.2539C250.453 58.2539 248.739 57.6826 247.47 56.54C246.2 55.3975 245.553 53.8275 245.527 51.8301V39.5156H249.336V51.7158C249.336 52.9261 249.624 53.8105 250.199 54.3691C250.783 54.9193 251.587 55.1943 252.611 55.1943C254.753 55.1943 255.84 54.0687 255.874 51.8174V39.5156H259.695ZM253.297 34.5645H257.296L253.779 38.5H250.796L253.297 34.5645ZM282.445 42.6006H276.783V58H272.975V42.6006H267.389V39.5156H282.445V42.6006ZM299.673 58H295.864V50.0781H288.438V58H284.629V39.5156H288.438V47.0059H295.864V39.5156H299.673V58ZM318.195 49.1768C318.195 50.9964 317.874 52.5918 317.23 53.9629C316.587 55.334 315.665 56.3919 314.463 57.1367C313.27 57.8815 311.898 58.2539 310.35 58.2539C308.818 58.2539 307.451 57.8857 306.249 57.1494C305.047 56.4131 304.116 55.3636 303.456 54.001C302.796 52.6299 302.462 51.0557 302.453 49.2783V48.3643C302.453 46.5446 302.779 44.945 303.431 43.5654C304.091 42.1774 305.018 41.1152 306.211 40.3789C307.413 39.6341 308.784 39.2617 310.324 39.2617C311.865 39.2617 313.231 39.6341 314.425 40.3789C315.627 41.1152 316.553 42.1774 317.205 43.5654C317.865 44.945 318.195 46.5404 318.195 48.3516V49.1768ZM314.336 48.3389C314.336 46.4007 313.989 44.9281 313.295 43.9209C312.601 42.9137 311.611 42.4102 310.324 42.4102C309.046 42.4102 308.06 42.9095 307.366 43.9082C306.672 44.8984 306.321 46.3542 306.312 48.2754V49.1768C306.312 51.0641 306.66 52.5283 307.354 53.5693C308.048 54.6104 309.046 55.1309 310.35 55.1309C311.628 55.1309 312.609 54.6315 313.295 53.6328C313.98 52.6257 314.327 51.1615 314.336 49.2402V48.3389ZM308.331 60.9707C308.331 60.4629 308.521 60.0439 308.902 59.7139C309.283 59.3838 309.774 59.2188 310.375 59.2188C310.984 59.2188 311.479 59.3838 311.86 59.7139C312.241 60.0439 312.432 60.4629 312.432 60.9707C312.432 61.4701 312.241 61.889 311.86 62.2275C311.488 62.5661 310.993 62.7354 310.375 62.7354C309.757 62.7354 309.262 62.5661 308.89 62.2275C308.517 61.889 308.331 61.4701 308.331 60.9707Z" fill="#495057"/>
</svg>
