<svg width="28" height="29" viewBox="0 0 28 29" fill="none" xmlns="http://www.w3.org/2000/svg">
<rect x="1.75" y="1.9375" width="24.5" height="24.5" rx="7" fill="#00A7E0"/>
<path d="M10.0142 15.2996L11.6237 19.6681L18.7734 9.73914L10.0142 15.2996Z" fill="#C2DAEC"/>
<path d="M11.8012 16.2698L11.646 19.7106L15.4195 16.5119L11.8012 16.2698Z" fill="#9FCDE2"/>
<path d="M20.5195 8.06137L6.43084 13.4204C6.34327 13.4536 6.26808 13.5129 6.21553 13.5904C6.16299 13.6679 6.13566 13.7598 6.13727 13.8534C6.13889 13.947 6.16938 14.0379 6.22457 14.1135C6.27976 14.1891 6.35696 14.2459 6.44563 14.276L10.0805 15.4993L18.3538 10.1606L11.801 16.2718L16.9013 20.1524C17.0233 20.2464 17.1669 20.3083 17.319 20.3326C17.4711 20.3569 17.6269 20.3428 17.7721 20.2916C17.9174 20.2403 18.0475 20.1536 18.1507 20.0393C18.2539 19.9249 18.3269 19.7866 18.363 19.6369L21.122 8.60652C21.1445 8.52529 21.1439 8.43941 21.1204 8.35847C21.0969 8.27752 21.0514 8.20471 20.9889 8.14816C20.9264 8.09161 20.8494 8.05354 20.7665 8.03822C20.6836 8.02289 20.5981 8.03091 20.5195 8.06137Z" fill="#ECF8FD"/>
</svg>
