<svg width="24" height="24" viewBox="0 0 24 24" fill="none" xmlns="http://www.w3.org/2000/svg">
<g clip-path="url(#clip0)">
<path d="M21 1.00008H3C1.346 1.00008 0 2.34608 0 4.00008V20.0001C0 21.6541 1.346 23.0001 3 23.0001H21C22.654 23.0001 24 21.6541 24 20.0001V4.00008C24 2.34608 22.654 1.00008 21 1.00008Z" fill="#60718B"/>
<path d="M21 21H3C2.449 21 2 20.552 2 20V6H22V20C22 20.552 21.551 21 21 21Z" fill="white"/>
<path d="M12 1.00008H3C1.346 1.00008 0 2.34608 0 4.00008V20.0001C0 21.6541 1.346 23.0001 3 23.0001H12V21.0001H3C2.449 21.0001 2 20.5521 2 20.0001V6.00008H12V1.00008Z" fill="#546579"/>
<path opacity="0.5" d="M12 6H2V20C2 20.552 2.449 21 3 21H12V6Z" fill="#B7D4F6"/>
<path d="M12 9H5C4.448 9 4 9.448 4 10V11.5C4 12.052 4.448 12.5 5 12.5C5.552 12.5 6 12.052 6 11.5V11H7.5V17H7C6.448 17 6 17.447 6 18C6 18.553 6.448 19 7 19H10C10.552 19 11 18.553 11 18C11 17.447 10.552 17 10 17H9.5V11H11V11.5C11 12.052 11.448 12.5 12 12.5C12.552 12.5 13 12.052 13 11.5V10C13 9.448 12.552 9 12 9Z" fill="#6482FF"/>
<path d="M8.5 9H5C4.448 9 4 9.448 4 10V11.5C4 12.052 4.448 12.5 5 12.5C5.552 12.5 6 12.052 6 11.5V11H7.5V17H7C6.448 17 6 17.447 6 18C6 18.553 6.448 19 7 19H8.5V9Z" fill="#4569FC"/>
<path d="M19 11H16C15.448 11 15 10.552 15 10C15 9.448 15.448 9 16 9H19C19.552 9 20 9.448 20 10C20 10.552 19.552 11 19 11Z" fill="#909EAE"/>
<path d="M19 15.0001H16C15.448 15.0001 15 14.5531 15 14.0001C15 13.4471 15.448 13.0001 16 13.0001H19C19.552 13.0001 20 13.4471 20 14.0001C20 14.5531 19.552 15.0001 19 15.0001Z" fill="#909EAE"/>
<path d="M19 18.9999H16C15.448 18.9999 15 18.5529 15 17.9999C15 17.4469 15.448 16.9999 16 16.9999H19C19.552 16.9999 20 17.4469 20 17.9999C20 18.5529 19.552 18.9999 19 18.9999Z" fill="#909EAE"/>
<path d="M17.5 9H16C15.448 9 15 9.448 15 10C15 10.552 15.448 11 16 11H17.5V9Z" fill="#7D8997"/>
<path d="M17.5 13.0001H16C15.448 13.0001 15 13.4471 15 14.0001C15 14.5531 15.448 15.0001 16 15.0001H17.5V13.0001Z" fill="#7D8997"/>
<path d="M17.5 16.9999H16C15.448 16.9999 15 17.4469 15 17.9999C15 18.5529 15.448 18.9999 16 18.9999H17.5V16.9999Z" fill="#7D8997"/>
</g>
<defs>
<clipPath id="clip0">
<rect width="24" height="24" fill="white"/>
</clipPath>
</defs>
</svg>
