<svg width="32" height="19" viewBox="0 0 32 19" fill="none" xmlns="http://www.w3.org/2000/svg">
<path fill-rule="evenodd" clip-rule="evenodd" d="M22.6 0.811043C23.0643 0.74767 23.5231 0.9604 23.7747 1.35577L27.3035 6.90102L29.0223 3.46336C29.3187 2.87059 30.0395 2.63032 30.6323 2.92671C31.225 3.22309 31.4653 3.9439 31.1689 4.53668L28.5023 9.87001C28.3089 10.2567 27.9225 10.5095 27.4908 10.5318C27.059 10.554 26.6486 10.3423 26.4165 9.9776L23.1506 4.84544L19.2436 17.6827C19.0896 18.1889 18.6223 18.5344 18.0932 18.5333C17.5642 18.5323 17.0982 18.1849 16.9462 17.6782L13.8852 7.47481L10.5283 15.1477C10.3484 15.559 9.95379 15.8355 9.50569 15.8642C9.0576 15.8929 8.63096 15.6691 8.39995 15.2841L5.40805 10.2976L3.11321 13.9694C2.76195 14.5314 2.02161 14.7022 1.45961 14.351C0.897605 13.9997 0.726757 13.2594 1.07801 12.6974L4.41134 7.36402C4.63269 7.00987 5.02224 6.79627 5.43985 6.80007C5.85746 6.80386 6.24306 7.02451 6.45793 7.38262L9.26157 12.0554L12.9962 3.51904C13.1979 3.05801 13.6658 2.7718 14.1681 2.80221C14.6704 2.83263 15.1004 3.17321 15.245 3.6552L18.1039 13.1848L21.6143 1.65063C21.7507 1.20229 22.1357 0.874416 22.6 0.811043Z" fill="none"/>
</svg>
