<svg width="28" height="28" viewBox="0 0 28 28" fill="none" xmlns="http://www.w3.org/2000/svg">
<path d="M14.0002 1.75159C12.384 1.75159 7.46568 1.75159 4.74656 4.23432C3.12733 5.84742 2.36426 8.17828 2.36426 11.5502V13.3875C2.36426 16.7594 3.12733 19.0903 4.76554 20.7218C5.58128 21.4659 6.69342 22.0605 8.05299 22.4714L8.48841 22.6025V25.8655C8.48841 26.2482 8.59926 26.2482 8.63601 26.2482C8.71133 26.2482 8.83198 26.2243 9.06102 26.021C9.11614 25.9665 9.52034 25.5292 11.4862 23.327L11.6846 23.1047L11.9816 23.1237C12.64 23.1647 13.3191 23.1861 14.0002 23.1861C15.6163 23.1861 20.5346 23.1861 23.2538 20.7028C24.8724 19.0897 25.6361 16.7588 25.6361 13.3875V11.5502C25.6361 8.17828 24.873 5.84742 23.2348 4.21595C20.5346 1.75159 15.6163 1.75159 14.0002 1.75159Z" fill="#7360F2"/>
<path d="M19.7882 16.3602C19.1078 15.7869 18.7937 15.6136 17.8542 15.0496C17.4629 14.815 16.8664 14.6123 16.5535 14.6123C16.3397 14.6123 16.0837 14.7758 15.927 14.9326C15.5252 15.3344 15.3935 15.8372 14.6893 15.8372C14.0003 15.8372 12.7969 15.1359 11.9334 14.2296C11.027 13.3661 10.3258 12.1627 10.3258 11.4737C10.3258 10.7694 10.8194 10.6286 11.2212 10.2262C11.3779 10.07 11.5506 9.81404 11.5506 9.60031C11.5506 9.28737 11.3479 8.70006 11.1134 8.30873C10.5493 7.36867 10.3766 7.0545 9.8028 6.37472C9.60867 6.14445 9.38758 6.03911 9.15609 6.0385C8.76476 6.03789 8.25094 6.23203 7.90309 6.49108C7.38009 6.88119 6.8332 7.41215 6.68683 8.07356C6.66723 8.16358 6.6556 8.25422 6.65192 8.34486C6.62375 9.03383 6.89444 9.73321 7.18656 10.3254C7.87431 11.7211 8.78436 13.0721 9.77463 14.2786C10.0913 14.6644 10.436 15.0233 10.7931 15.3699C11.1397 15.7263 11.4986 16.0711 11.8844 16.3883C13.0909 17.3786 14.4419 18.2887 15.8375 18.9764C16.4242 19.2655 17.115 19.5312 17.7973 19.5116C17.8946 19.5086 17.992 19.4976 18.0894 19.4761C18.7508 19.3304 19.2818 18.7829 19.6719 18.2599C19.9309 17.912 20.1251 17.3988 20.1245 17.0069C20.1238 16.7754 20.0185 16.5543 19.7882 16.3602ZM20.1245 13.3875C19.7864 13.3875 19.512 13.1131 19.512 12.7751V12.1627C19.512 9.12385 17.0391 6.65092 14.0003 6.65092C13.6622 6.65092 13.3879 6.37656 13.3879 6.0385C13.3879 5.70045 13.6622 5.42609 14.0003 5.42609C17.7146 5.42609 20.7369 8.44836 20.7369 12.1627V12.7751C20.7369 13.1131 20.4625 13.3875 20.1245 13.3875ZM16.363 12.1627C16.0911 12.1627 15.8424 11.9802 15.7708 11.7046C15.603 11.0609 15.1008 10.5581 14.4596 10.3928C14.132 10.3077 13.9354 9.97389 14.0199 9.64624C14.1044 9.31921 14.4376 9.12263 14.7664 9.20653C15.8369 9.48395 16.6759 10.3223 16.9558 11.3953C17.0409 11.7229 16.845 12.0567 16.5179 12.1424C16.4659 12.1559 16.4138 12.1627 16.363 12.1627Z" fill="white"/>
<path d="M18.2871 12.7752C17.9491 12.7752 17.6747 12.5008 17.6747 12.1628C17.6747 10.2104 16.1473 8.59975 14.1974 8.49686C13.8593 8.4791 13.6003 8.19065 13.618 7.85321C13.6358 7.51516 13.9292 7.25549 14.2617 7.27387C16.8626 7.41105 18.8995 9.55879 18.8995 12.1628C18.8995 12.5008 18.6252 12.7752 18.2871 12.7752Z" fill="white"/>
<path d="M14.0001 1.13928C11.2442 1.13928 6.94995 1.39282 4.33372 3.78247C2.48422 5.624 1.75177 8.20717 1.75177 11.5503C1.75177 11.8272 1.75055 12.1358 1.753 12.469C1.75055 12.8015 1.75177 13.1102 1.75177 13.387C1.75177 16.7302 2.48422 19.3133 4.33372 21.1549C5.3295 22.0643 6.57148 22.6626 7.87593 23.057V25.8656C7.87593 26.843 8.51835 26.8607 8.63594 26.8607H8.64145C8.94398 26.8595 9.20548 26.7113 9.4676 26.4786C9.5662 26.391 10.7047 25.1221 11.943 23.7344C12.6803 23.7815 13.3809 23.7987 13.9995 23.7987C16.7553 23.7987 21.049 23.5445 23.6658 21.1549C25.5147 19.3139 26.2478 16.7302 26.2478 13.387C26.2478 13.1102 26.249 12.8015 26.2466 12.4684C26.249 12.1352 26.2478 11.8272 26.2478 11.5497C26.2478 8.20656 25.5153 5.62339 23.6658 3.78186C21.0496 1.39282 16.756 1.13928 14.0001 1.13928ZM24.4111 13.1739V13.387C24.4111 16.3915 23.7712 18.4388 22.3988 19.8247C20.0214 21.9614 15.4925 21.9614 13.9995 21.9614C13.5451 21.9614 12.8077 21.9608 11.9375 21.9002C11.6956 22.1721 9.10076 25.0743 9.10076 25.0743V21.4837C7.81224 21.1745 6.53902 20.6674 5.60142 19.8253C4.22899 18.4388 3.58902 16.3915 3.58902 13.387V13.1739C3.58902 12.9589 3.58841 12.7268 3.59024 12.4555C3.58841 12.2105 3.58841 11.979 3.58902 11.7635V11.5503C3.58902 8.54584 4.22899 6.49853 5.60142 5.11264C7.9782 2.97592 12.5076 2.97592 14.0001 2.97592C15.4925 2.97592 20.0214 2.97592 22.3981 5.11264C23.7712 6.49853 24.4105 8.54584 24.4105 11.5503V11.7635C24.4105 11.9784 24.4112 12.2105 24.4093 12.4818C24.4112 12.7274 24.4111 12.9589 24.4111 13.1739Z" fill="white"/>
</svg>
