<?xml version="1.0" standalone="no"?>
<!DOCTYPE svg PUBLIC "-//W3C//DTD SVG 20010904//EN"
 "http://www.w3.org/TR/2001/REC-SVG-20010904/DTD/svg10.dtd">
<svg version="1.0" xmlns="http://www.w3.org/2000/svg"
 width="28.000000pt" height="28.000000pt" viewBox="0 0 28.000000 28.000000"
 preserveAspectRatio="xMidYMid meet">

<g transform="translate(0.000000,28.000000) scale(0.100000,-0.100000)"
fill="#3E65FF" stroke="none">
<path d="M145 218 c-11 -29 -55 -162 -55 -165 0 -6 39 -3 43 5 3 4 16 44 30
90 25 79 25 82 6 82 -11 0 -22 -6 -24 -12z"/>
<path d="M187 157 l-16 -47 30 0 c32 0 34 7 15 60 l-13 34 -16 -47z"/>
<path d="M50 153 c1 -10 7 -31 14 -48 l12 -30 17 48 16 47 -30 0 c-21 0 -29
-5 -29 -17z"/>
</g>
</svg>
