<svg width="63" height="63" viewBox="0 0 63 63" fill="none" xmlns="http://www.w3.org/2000/svg">
<circle cx="31.3808" cy="31.475" r="31.2013" fill="#ECEDEF"/>
<path d="M11.3542 30.7381C10.4193 28.1107 11.8996 25.2549 14.6625 24.3639C15.2019 24.1925 15.7593 24.1011 16.3287 24.1011L25.6122 24.0554L17.3715 47.719L11.3542 30.7381Z" fill="#3E64FF"/>
<path d="M45.3841 15.5164L51.4074 32.4973C52.3423 35.1246 50.862 37.9805 48.1051 38.8715C47.5657 39.0429 47.0023 39.1343 46.439 39.14L37.1554 39.1857L45.3841 15.5164Z" fill="#3E64FF"/>
<path d="M36.0825 11.9973C34.1826 11.9859 32.4925 13.151 31.8992 14.876L19.4572 51.0196H26.5951C28.501 51.0311 30.1971 49.8602 30.7904 48.1352L43.2325 11.9973H36.0825Z" fill="#3E64FF"/>
<path d="M49.2136 13.9628V12.3749H49.807C49.9388 12.3749 50.0407 12.3978 50.1306 12.4378C50.2145 12.4778 50.2804 12.5406 50.3224 12.6148C50.3643 12.6891 50.3883 12.7748 50.3883 12.8719C50.3883 12.969 50.3643 13.0546 50.3224 13.1289C50.2804 13.2031 50.2145 13.2603 50.1306 13.3002C50.0467 13.3402 49.9388 13.3631 49.807 13.3631H49.3575V13.1574H49.783C49.8669 13.1574 49.9328 13.146 49.9808 13.1232C50.0347 13.1003 50.0707 13.0661 50.0946 13.0261C50.1186 12.9861 50.1306 12.9347 50.1306 12.8719C50.1306 12.809 50.1186 12.7576 50.0946 12.7176C50.0707 12.6719 50.0347 12.6377 49.9808 12.6148C49.9268 12.592 49.8609 12.5806 49.777 12.5806H49.4653V13.9628H49.2136ZM50.0347 13.2431L50.4482 13.9628H50.1606L49.759 13.2431H50.0347Z" fill="#3E64FF"/>
<path d="M49.7646 14.8478C48.8176 14.8478 48.0505 14.1167 48.0505 13.2142C48.0505 12.3118 48.8176 11.5807 49.7646 11.5807C50.7115 11.5807 51.4786 12.3118 51.4786 13.2142C51.4786 14.1167 50.7115 14.8478 49.7646 14.8478ZM49.7646 11.7063C48.8895 11.7063 48.1823 12.3803 48.1823 13.2142C48.1823 14.0481 48.8895 14.7221 49.7646 14.7221C50.6396 14.7221 51.3468 14.0481 51.3468 13.2142C51.3468 12.3803 50.6396 11.7063 49.7646 11.7063Z" fill="#3E64FF"/>
<path d="M49.7651 14.8881C48.7941 14.8881 48.009 14.1399 48.009 13.2146C48.009 12.2893 48.7941 11.5411 49.7651 11.5411C50.736 11.5411 51.5211 12.2893 51.5211 13.2146C51.5211 14.1399 50.736 14.8881 49.7651 14.8881ZM49.7651 11.621C48.8421 11.621 48.0989 12.335 48.0989 13.2089C48.0989 14.0828 48.8481 14.8025 49.7651 14.8025C50.688 14.8025 51.4312 14.0885 51.4312 13.2146C51.4312 12.3407 50.688 11.621 49.7651 11.621ZM49.7651 14.7625C48.8661 14.7625 48.1409 14.0656 48.1409 13.2146C48.1409 12.3579 48.8721 11.6667 49.7651 11.6667C50.664 11.6667 51.3892 12.3636 51.3892 13.2146C51.3952 14.0656 50.664 14.7625 49.7651 14.7625ZM49.7651 11.7467C48.914 11.7467 48.2248 12.4035 48.2248 13.2146C48.2248 14.0257 48.914 14.6825 49.7651 14.6825C50.6161 14.6825 51.3053 14.0257 51.3053 13.2146C51.3053 12.4035 50.6161 11.7467 49.7651 11.7467Z" fill="#3E64FF"/>
</svg>
