<svg width="24" height="24" viewBox="0 0 24 24" fill="none" xmlns="http://www.w3.org/2000/svg">
<path fill-rule="evenodd" clip-rule="evenodd" d="M0 12C0 5.37258 5.37258 0 12 0C18.6274 0 24 5.37258 24 12C24 18.6274 18.6274 24 12 24C5.37258 24 0 18.6274 0 12Z" fill="#F43F4A"/>
<path fill-rule="evenodd" clip-rule="evenodd" d="M18.1326 9.03662C17.9854 8.47111 17.5517 8.0258 17.0009 7.87467C16.0028 7.60001 12.0001 7.60001 12.0001 7.60001C12.0001 7.60001 7.99741 7.60001 6.99923 7.87467C6.44846 8.0258 6.01472 8.47111 5.86752 9.03662C5.6001 10.0615 5.6001 12.2 5.6001 12.2C5.6001 12.2 5.6001 14.3384 5.86752 15.3634C6.01472 15.9289 6.44846 16.3742 6.99923 16.5254C7.99741 16.8 12.0001 16.8 12.0001 16.8C12.0001 16.8 16.0028 16.8 17.0009 16.5254C17.5517 16.3742 17.9854 15.9289 18.1326 15.3634C18.4001 14.3384 18.4001 12.2 18.4001 12.2C18.4001 12.2 18.4001 10.0615 18.1326 9.03662Z" fill="white"/>
<path fill-rule="evenodd" clip-rule="evenodd" d="M10.7998 14.4V10.4L13.9998 12.4001L10.7998 14.4Z" fill="#FF0000"/>
</svg>
