<svg width="28" height="28" viewBox="0 0 28 28" fill="none" xmlns="http://www.w3.org/2000/svg">
<rect x="1.82031" y="1.75" width="24.5" height="24.4933" rx="6" fill="#0068FF"/>
<path fill-rule="evenodd" clip-rule="evenodd" d="M26.3203 12.7272V20.2434C26.3203 23.5571 23.6341 26.2434 20.3203 26.2434H9.90012L5.68457 21.8812L26.3203 12.7272Z" fill="#005BE0"/>
<path fill-rule="evenodd" clip-rule="evenodd" d="M8.92443 1.75C6.60265 3.1439 4.33883 6.73058 4.3885 11.6595C4.42428 15.2103 5.84854 18.2894 6.5769 19.1667C6.80218 20.5142 6.05771 21.378 5.74324 21.7428C5.73266 21.7551 5.72257 21.7668 5.71302 21.778C5.34248 22.2103 8.39713 21.7688 8.87891 21.3965C8.91652 21.4151 8.97607 21.4496 9.05732 21.4966C9.86931 21.9663 12.8481 23.6894 17.7488 23.422C22.8553 23.1433 25.1553 21.1264 26.3204 19.898V7.75C26.3204 4.43629 23.6341 1.75 20.3204 1.75H8.92443Z" fill="white"/>
<path fill-rule="evenodd" clip-rule="evenodd" d="M16.2709 11.5452V11.228H17.2209V15.6877H16.6774C16.4536 15.6877 16.272 15.507 16.2709 15.2836C16.2707 15.2837 16.2706 15.2838 16.2704 15.2839C15.8878 15.5637 15.4148 15.7298 14.9039 15.7298C13.6244 15.7298 12.5869 14.6931 12.5869 13.4144C12.5869 12.1357 13.6244 11.099 14.9039 11.099C15.4148 11.099 15.8878 11.2651 16.2704 11.5449C16.2706 11.545 16.2707 11.5451 16.2709 11.5452ZM12.3408 9.79395V9.93853C12.3408 10.2082 12.3047 10.4284 12.1295 10.6867L12.1083 10.7109C12.07 10.7542 11.9802 10.8561 11.9375 10.9114L8.88774 14.7393H12.3408V15.2812C12.3408 15.5057 12.1586 15.6877 11.9339 15.6877H7.45996V15.4321C7.45996 15.1192 7.53771 14.9796 7.63599 14.8342L10.8871 10.8101H7.5955V9.79395H12.3408ZM18.3731 15.6877C18.1862 15.6877 18.0343 15.5358 18.0343 15.3492V9.79397H19.0512V15.6877H18.3731ZM22.0578 11.071C23.3463 11.071 24.3904 12.1156 24.3904 13.4021C24.3904 14.6897 23.3463 15.7342 22.0578 15.7342C20.7694 15.7342 19.7253 14.6897 19.7253 13.4021C19.7253 12.1156 20.7694 11.071 22.0578 11.071ZM14.9039 14.7767C15.6569 14.7767 16.2671 14.1669 16.2671 13.4144C16.2671 12.663 15.6569 12.0532 14.9039 12.0532C14.1509 12.0532 13.5407 12.663 13.5407 13.4144C13.5407 14.1669 14.1509 14.7767 14.9039 14.7767ZM22.0578 14.7744C22.8153 14.7744 23.4299 14.1601 23.4299 13.4021C23.4299 12.6451 22.8153 12.031 22.0578 12.031C21.2993 12.031 20.6857 12.6451 20.6857 13.4021C20.6857 14.1601 21.2993 14.7744 22.0578 14.7744Z" fill="#0068FF"/>
</svg>
