<svg width="80" height="80" viewBox="0 0 80 80" fill="none" xmlns="http://www.w3.org/2000/svg">
<g clip-path="url(#clip0)">
<path d="M78.2438 40.8785C78.2438 62.485 60.7286 80.0002 39.1221 80.0002C25.6193 80.0002 13.7144 73.1594 6.6838 62.7547C4.63851 59.7286 1.92001 53.6123 0.842738 47.9049C-0.302281 41.8362 0.262294 36.2301 0.396571 35.2889C3.10897 16.3302 19.4133 1.75684 39.1221 1.75684C60.7286 1.75684 78.2438 19.2721 78.2438 40.8785Z" fill="#FDD052"/>
<path d="M74.3877 5.61218C81.8706 13.0957 81.8706 25.2283 74.3877 32.7112C66.9042 40.1941 54.7722 40.1941 47.2887 32.7112C39.8058 25.2283 39.8058 13.0957 47.2887 5.61218C54.7722 -1.87073 66.9042 -1.87073 74.3877 5.61218Z" fill="#00B96F"/>
<path d="M74.3874 5.61243C81.2252 12.4502 81.8136 23.1698 76.1544 30.6771C68.6471 36.3363 57.9281 35.7479 51.0897 28.9102C44.252 22.0718 43.6636 11.3528 49.3228 3.84546C56.8301 -1.81371 67.5491 -1.22533 74.3874 5.61243Z" fill="#54D680"/>
<path d="M79.1751 10.7641L63.5959 26.3433C63.046 26.8932 62.3245 27.1685 61.6043 27.1685C60.8835 27.1685 60.1627 26.8939 59.6127 26.3433L51.8564 18.5876C50.7565 17.4871 50.7565 15.7037 51.8564 14.6038C52.9562 13.504 54.7397 13.504 55.8395 14.6038L61.6043 20.3686L75.1926 6.78094C76.2924 5.68109 78.0752 5.68109 79.1757 6.78094C80.2756 7.8808 80.2756 9.66424 79.1751 10.7641Z" fill="#FFE49F"/>
<path d="M79.1742 6.78148C80.2746 7.88133 80.2746 9.66417 79.1748 10.764L65.7696 24.1686C65.2197 24.7185 64.4989 24.9937 63.778 24.9937C63.0572 24.9937 62.3364 24.7191 61.7865 24.1686L54.0301 16.4122C53.3319 15.714 53.0786 14.7405 53.2666 13.8408C54.1662 13.6528 55.1397 13.9061 55.838 14.6044L61.6028 20.3691L75.191 6.78087C76.2909 5.68102 78.0743 5.68102 79.1742 6.78148Z" fill="#FFF5F5"/>
<path d="M63.6181 39.5432C63.479 39.6177 63.3929 39.7623 63.3929 39.9198C63.3929 40.0773 63.479 40.2225 63.6181 40.2964C64.624 40.8341 65.3094 41.8931 65.3094 43.1138V44.7104C65.3094 45.9305 64.624 46.9901 63.6181 47.5272C63.479 47.6017 63.3929 47.7463 63.3929 47.9038C63.3929 48.0613 63.479 48.2065 63.6181 48.2804C64.624 48.8181 65.3094 49.8771 65.3094 51.0978V52.6944C65.3094 53.9145 64.624 54.9741 63.6181 55.5112C63.479 55.5857 63.3929 55.7303 63.3929 55.8878C63.3929 56.0453 63.479 56.1905 63.6181 56.2644C64.624 56.8021 65.3094 57.8611 65.3094 59.0818V60.6785C65.3094 62.4424 63.8794 63.8718 62.1155 63.8718H45.0616C42.6581 63.8718 40.3198 63.0869 38.4033 61.6367C36.4862 60.1859 34.1486 59.401 31.7444 59.401H18.6829V38.6423H30.0134C32.2955 38.6423 34.4037 37.4253 35.545 35.449L40.9473 26.0917C41.3678 25.3629 41.5887 24.5371 41.5887 23.696V18.3628C41.5887 17.0402 42.6611 15.9678 43.9844 15.9678C47.0709 15.9678 49.5727 18.4702 49.5727 21.5568V24.5664C49.5727 26.2559 49.126 27.9154 48.2782 29.376L47.2095 31.2162C47.0245 31.536 47.2546 31.9358 47.6239 31.9358H62.1155C63.8794 31.9358 65.3094 33.3658 65.3094 35.1298V36.7264C65.3094 37.9465 64.624 39.0061 63.6181 39.5432Z" fill="#FFDFCF"/>
<path d="M44.5505 16.6068V19.8002C44.5505 20.6821 43.8358 21.3968 42.9539 21.3968H41.5891V18.3628C41.5891 17.0402 42.6615 15.9678 43.9841 15.9678C44.1331 15.9678 44.2802 15.9751 44.426 15.9867C44.506 16.1777 44.5505 16.3871 44.5505 16.6068Z" fill="#FFEEE6"/>
<path d="M52.5348 38.3232C52.5348 37.4413 53.2501 36.7266 54.1315 36.7266H65.3094C65.3094 37.9467 64.624 39.0062 63.6181 39.5433C63.479 39.6178 63.3929 39.7625 63.3929 39.9199H54.1315C53.2501 39.9199 52.5348 39.2052 52.5348 38.3232ZM62.1155 58.7627H45.0616C42.6581 58.7627 40.3198 57.9772 38.4033 56.527C36.4862 55.0762 34.1486 54.2913 31.7444 54.2913H18.6829V59.4011H31.7444C34.1486 59.4011 36.4862 60.186 38.4033 61.6368C40.3198 63.087 42.6581 63.8719 45.0616 63.8719H62.1155C63.8794 63.8719 65.3094 62.4425 65.3094 60.6786V59.0819C65.3094 58.4331 65.1123 57.8319 64.7796 57.329C64.2077 58.192 63.2287 58.7627 62.1155 58.7627ZM52.5348 54.2913C52.5348 55.1732 53.2501 55.8879 54.1315 55.8879H63.3929C63.3929 55.7305 63.479 55.5858 63.6181 55.5113C64.624 54.9742 65.3094 53.9147 65.3094 52.6946H54.1315C53.2501 52.6946 52.5348 53.4093 52.5348 54.2913ZM52.5348 46.3072C52.5348 47.1892 53.2501 47.9039 54.1315 47.9039H63.3929C63.3929 47.7465 63.479 47.6018 63.6181 47.5273C64.624 46.9902 65.3094 45.9307 65.3094 44.7106H54.1315C53.2501 44.7106 52.5348 45.4253 52.5348 46.3072Z" fill="#FFC9C0"/>
<path d="M25.0696 35.9279V62.1156C25.0696 63.4382 23.9972 64.5106 22.6745 64.5106H14.6905C13.5895 64.5106 12.6642 63.766 12.384 62.754H6.68335C2.46399 56.5095 0 48.9814 0 40.8778C0 38.9802 0.137939 37.1144 0.39917 35.2888H12.384C12.6642 34.2769 13.5895 33.5322 14.6905 33.5322H22.6745C23.9972 33.5322 25.0696 34.6046 25.0696 35.9279Z" fill="#FF393A"/>
<path d="M0 40.8778C0 38.9802 0.134888 37.1144 0.396118 35.2888H7.50488V54.8805C7.50488 56.2031 6.43249 57.2755 5.10986 57.2755H3.59192C1.28601 52.2877 0 46.7335 0 40.8778ZM12.2955 35.9279V56.6859C12.2955 58.0091 13.3679 59.0815 14.6905 59.0815H22.6745C23.9972 59.0815 25.0696 58.0091 25.0696 56.6859V35.9279C25.0696 34.6046 23.9972 33.5322 22.6745 33.5322H14.6905C13.3679 33.5322 12.2955 34.6046 12.2955 35.9279Z" fill="#FF6466"/>
</g>
<defs>
<clipPath id="clip0">
<rect width="80" height="80" fill="white"/>
</clipPath>
</defs>
</svg>
