<svg width="82" height="82" viewBox="0 0 82 82" fill="none" xmlns="http://www.w3.org/2000/svg">
<g clip-path="url(#clip0)">
<circle cx="41.1407" cy="40.4756" r="39.8594" fill="#54D680"/>
<mask id="mask0" mask-type="alpha" maskUnits="userSpaceOnUse" x="1" y="0" width="80" height="81">
<circle cx="41.1407" cy="40.4756" r="39.8594" fill="#C4C4C4"/>
</mask>
<g mask="url(#mask0)">
<path d="M-7.27441 -42.8516H56.6465V41.1232C56.6465 44.9892 53.5125 48.1232 49.6465 48.1232H-0.274411C-4.1404 48.1232 -7.27441 44.9892 -7.27441 41.1232V-42.8516Z" fill="#453D83"/>
<path d="M-3.61804 -42.8516H52.9899V35.9193C52.9899 39.7853 49.8559 42.9193 45.9899 42.9193H3.38195C-0.484043 42.9193 -3.61804 39.7853 -3.61804 35.9193V-42.8516Z" fill="#51489A"/>
<path d="M0.358765 -42.8516H49.0133V32.2655C49.0133 36.1315 45.8793 39.2655 42.0133 39.2655H7.35877C3.49278 39.2655 0.358765 36.1315 0.358765 32.2655V-42.8516Z" fill="#BEC8F7"/>
</g>
<rect x="7.07385" y="20.6494" width="38.8477" height="11.8622" rx="2" fill="#4B6BB2"/>
<rect x="8.14185" y="21.4658" width="36.7116" height="10.2316" rx="2" fill="#E9EFFF"/>
<path d="M26.3353 33.6429C30.0542 33.6429 33.0689 30.6282 33.0689 26.9093C33.0689 23.1905 30.0542 20.1758 26.3353 20.1758C22.6165 20.1758 19.6018 23.1905 19.6018 26.9093C19.6018 30.6282 22.6165 33.6429 26.3353 33.6429Z" fill="#73C3F9"/>
<path d="M28.9116 20.6875C28.3232 21.0687 27.437 21.927 27.9445 23.4622C28.6749 25.6717 29.9024 27.661 29.9024 27.661C29.9024 27.661 30.9672 29.516 32.9344 28.2537C33.0224 27.8193 33.0689 27.3698 33.0689 26.9095C33.0689 24.1034 31.352 21.699 28.9116 20.6875Z" fill="#9BD8F9"/>
<path d="M26.3354 32.1819C29.2169 32.1819 31.5529 29.846 31.5529 26.9645C31.5529 24.083 29.2169 21.7471 26.3354 21.7471C23.454 21.7471 21.118 24.083 21.118 26.9645C21.118 29.846 23.454 32.1819 26.3354 32.1819Z" fill="#4FABF7"/>
<mask id="mask1" mask-type="alpha" maskUnits="userSpaceOnUse" x="-15" y="21" width="65" height="94">
<path d="M46.9356 60.0938L46.4889 59.836C43.9053 58.3443 40.5708 59.2378 39.0791 61.8214L40.9041 58.6608C42.3537 56.1501 41.7984 52.8899 39.4786 51.1512C36.7133 49.0787 32.8139 49.9442 31.1373 52.8484L31.7103 51.8559C33.1597 49.3452 32.6049 46.085 30.2848 44.3466C27.5195 42.2741 23.6204 43.1394 21.9436 46.0438L30.9779 30.3961C32.4275 27.8854 31.8722 24.6249 29.5524 22.8865C26.7868 20.814 22.8877 21.6798 21.2111 24.5837L6.13231 50.701C5.83539 51.2154 5.17185 51.3822 4.66858 51.0666C3.36971 50.252 1.35307 49.0261 -1.37456 49.941C-7.34801 51.9451 -11.506 57.3782 -11.8786 63.6694C-12.1468 69.4552 -12.4098 62.771 -9.64448 83.0928C-9.4441 84.4399 -9.70604 85.8153 -10.3872 86.9948L-14.5938 94.2929C-6.66278 103.633 3.80356 110.75 15.7434 114.582L22.2928 103.221C24.2818 99.7758 30.7257 99.0187 36.1373 89.6452C37.3364 87.5686 45.8056 72.8992 48.921 67.5036C50.4127 64.92 49.5192 61.5858 46.9356 60.0938Z" fill="#FFC9C0"/>
</mask>
<g mask="url(#mask1)">
<circle cx="40.8859" cy="40.3506" r="39.8594" fill="#FFC9C0"/>
</g>
<path d="M26.8503 23.611L29.0856 24.9016C30.3696 25.6429 30.8133 27.2997 30.0723 28.5832L27.6483 32.782C26.9071 34.066 25.2502 34.5099 23.9665 33.7687L21.7311 32.4781C20.4474 31.7368 20.0034 30.0802 20.7447 28.7962L23.1689 24.5975C23.9096 23.3137 25.5665 22.8698 26.8503 23.611Z" fill="#FFF5F5"/>
<path d="M76.1926 43.5989H50.5965C48.9902 43.5989 47.6879 42.2966 47.6879 40.6903V15.0942C47.6879 13.4878 48.9902 12.1855 50.5965 12.1855H76.1926C77.799 12.1855 79.1013 13.4878 79.1013 15.0942V40.6903C79.1013 42.2966 77.799 43.5989 76.1926 43.5989Z" fill="#C8E2FD"/>
<path d="M76.1923 43.5989H55.8159C54.2095 43.5989 52.9072 42.2966 52.9072 40.6903V15.0942C52.9072 13.4878 54.2095 12.1855 55.8159 12.1855H76.1923C77.7987 12.1855 79.101 13.4878 79.101 15.0942V40.6903C79.101 42.2966 77.7987 43.5989 76.1923 43.5989Z" fill="#E9F3FE"/>
<path d="M74.3651 18.8191L57.1901 26.9279C57.006 27.0161 56.8883 27.2017 56.8865 27.4056C56.8854 27.6104 56.9986 27.7981 57.182 27.8878L62.563 30.5783L63.8425 30.0544L63.3186 31.3339L66.0091 36.7149C66.0954 36.8898 66.2797 37.012 66.4913 37.0104C66.6953 37.0085 66.8808 36.8909 66.969 36.7068L75.0778 19.5318C75.2733 19.1238 74.7731 18.6236 74.3651 18.8191Z" fill="url(#paint0_linear)"/>
<path d="M67.6202 26.2748C67.4114 26.066 67.0735 26.066 66.8647 26.2748L62.5631 30.5763L63.0668 30.8282L63.3187 31.3319L67.6202 27.0303C67.829 26.8215 67.829 26.4836 67.6202 26.2748Z" fill="url(#paint1_linear)"/>
<path d="M64.3062 77.3795H40.9C39.7594 77.3795 38.8347 76.4548 38.8347 75.3142V51.908C38.8347 50.7675 39.7594 49.8428 40.9 49.8428H64.3062C65.4467 49.8428 66.3714 50.7675 66.3714 51.908V75.3142C66.3714 76.4548 65.4467 77.3795 64.3062 77.3795Z" fill="#C8E2FD"/>
<path d="M64.3061 77.3795H45.0305C43.8899 77.3795 42.9652 76.4548 42.9652 75.3142V51.908C42.9652 50.7675 43.8899 49.8428 45.0305 49.8428H64.3061C65.4467 49.8428 66.3714 50.7675 66.3714 51.908V75.3142C66.3714 76.4548 65.4467 77.3795 64.3061 77.3795Z" fill="#E9F3FE"/>
<path d="M61.6211 55.6827L46.6157 62.7672C46.4549 62.8442 46.3521 63.0063 46.3505 63.1845C46.3495 63.3634 46.4485 63.5275 46.6086 63.6058L51.3099 65.9565L52.4278 65.4987L51.97 66.6165L54.3207 71.3178C54.396 71.4707 54.557 71.5774 54.7419 71.576C54.9202 71.5744 55.0823 71.4716 55.1593 71.3107L62.2438 56.3054C62.4146 55.9489 61.9775 55.5119 61.6211 55.6827Z" fill="#F44545"/>
<path d="M55.7283 62.1974C55.5459 62.0149 55.2506 62.0149 55.0682 62.1974L51.3101 65.9555L51.7501 66.1755L51.9702 66.6156L55.7283 62.8575C55.9107 62.675 55.9107 62.3798 55.7283 62.1974Z" fill="#C50048"/>
</g>
<defs>
<linearGradient id="paint0_linear" x1="61.5762" y1="32.3187" x2="74.9464" y2="18.9485" gradientUnits="userSpaceOnUse">
<stop stop-color="#9BD8F9"/>
<stop offset="1" stop-color="#4FABF7"/>
</linearGradient>
<linearGradient id="paint1_linear" x1="62.9413" y1="30.9517" x2="67.6199" y2="26.2731" gradientUnits="userSpaceOnUse">
<stop stop-color="#9BD8F9"/>
<stop offset="0.9973" stop-color="#F0FAFF"/>
</linearGradient>
<clipPath id="clip0">
<rect width="82" height="82" fill="white" transform="translate(0 0.000976562)"/>
</clipPath>
</defs>
</svg>
