<svg width="80" height="81" viewBox="0 0 80 81" fill="none" xmlns="http://www.w3.org/2000/svg">
<g clip-path="url(#clip0)">
<path d="M40 80.5176C62.0914 80.5176 80 62.609 80 40.5176C80 18.4262 62.0914 0.517578 40 0.517578C17.9086 0.517578 0 18.4262 0 40.5176C0 62.609 17.9086 80.5176 40 80.5176Z" fill="#6F3FAA"/>
<path d="M57.3533 22.4617C47.617 20.1102 37.8634 17.3596 27.8788 20.8542C21.4141 23.2785 21.4141 30.2819 21.6834 36.2078C21.6834 37.8239 19.798 39.9789 20.6059 41.8644C22.222 47.2516 23.5689 52.6388 29.2255 55.3324C30.0336 55.8711 29.2255 56.9485 29.7642 57.7566C29.4948 57.7566 28.9561 58.026 28.9561 58.2953C28.9561 59.5864 29.5355 61.5613 29.1506 62.8344L46.3391 80.0156C64.0094 77.2016 77.82 62.8175 79.7631 44.8717L57.3533 22.4617Z" fill="#512D84"/>
<path d="M61.1604 28.6307L61.1473 28.5779C60.0785 24.2571 55.2601 19.6209 50.8351 18.6564L50.7853 18.6461C43.6281 17.2807 36.371 17.2807 29.2154 18.6461L29.164 18.6564C24.7406 19.6209 19.922 24.2575 18.8518 28.5779L18.8399 28.6307C17.5187 34.6646 17.5187 40.784 18.8399 46.8179L18.8518 46.8707C19.8765 51.007 24.336 55.4304 28.5959 56.6468V61.47C28.5959 63.2157 30.7232 64.0731 31.9329 62.8132L36.8196 57.7337C37.8796 57.7929 38.9401 57.826 40.0003 57.826C43.6029 57.826 47.2073 57.4853 50.7851 56.8028L50.8349 56.7925C55.2599 55.8279 60.0784 51.1914 61.1471 46.8709L61.1602 46.8181C62.4815 40.784 62.4815 34.665 61.1604 28.6307ZM57.2931 45.9431C56.5795 48.762 52.921 52.2664 50.0142 52.9139C46.2087 53.6376 42.3729 53.9468 38.541 53.8407C38.4648 53.8386 38.3915 53.8682 38.3385 53.9229C37.7946 54.4811 34.7706 57.5857 34.7706 57.5857L30.9756 61.4807C30.6981 61.7701 30.2106 61.5731 30.2106 61.1739V53.1839C30.2106 53.0518 30.1163 52.9398 29.9867 52.9142C29.9859 52.9139 29.9853 52.9139 29.9845 52.9137C27.0776 52.2662 23.4204 48.7618 22.7056 45.9429C21.5163 40.4889 21.5163 34.9598 22.7056 29.5057C23.4204 26.6868 27.0776 23.1825 29.9845 22.535C36.6307 21.2709 43.3695 21.2709 50.0143 22.535C52.9226 23.1825 56.5796 26.6868 57.2932 29.5057C58.4837 34.96 58.4837 40.489 57.2931 45.9431Z" fill="white"/>
<path d="M46.3234 49.6315C45.8765 49.4957 45.4508 49.4046 45.055 49.2407C40.9564 47.5402 37.1845 45.3465 34.1968 41.9838C32.4978 40.0717 31.1679 37.9128 30.0439 35.6281C29.5108 34.5446 29.0615 33.4188 28.6036 32.3001C28.1861 31.2801 28.8011 30.2263 29.4486 29.4576C30.0562 28.7362 30.8383 28.1843 31.6851 27.7773C32.3461 27.4598 32.9979 27.6429 33.4808 28.2031C34.5242 29.4143 35.4829 30.6874 36.2589 32.0915C36.7362 32.9551 36.6053 34.0107 35.7401 34.5984C35.5298 34.7412 35.3383 34.909 35.1425 35.0703C34.9706 35.2117 34.809 35.3545 34.6912 35.5459C34.4761 35.896 34.4658 36.3093 34.6042 36.6901C35.6709 39.6215 37.4689 41.9012 40.4197 43.1292C40.8918 43.3256 41.3659 43.5542 41.91 43.4909C42.8209 43.3845 43.1159 42.3851 43.7544 41.8631C44.3783 41.3529 45.1758 41.3462 45.8478 41.7715C46.5201 42.1971 47.1717 42.6537 47.8195 43.1154C48.4554 43.5685 49.0884 44.0115 49.6748 44.5282C50.2389 45.0249 50.4331 45.6765 50.1154 46.3504C49.5342 47.5849 48.6881 48.6117 47.4679 49.2673C47.1234 49.452 46.7118 49.5118 46.3234 49.6315C45.8765 49.4957 46.7118 49.5118 46.3234 49.6315Z" fill="white"/>
<path d="M40.011 26.3654C45.3718 26.5157 49.7751 30.0734 50.7187 35.3734C50.8795 36.2765 50.9367 37.1996 51.0082 38.1163C51.0384 38.5018 50.8199 38.8681 50.404 38.8732C49.9743 38.8784 49.781 38.5187 49.7529 38.1335C49.6978 37.3707 49.6595 36.6043 49.5543 35.8481C48.9995 31.8545 45.8151 28.5506 41.8401 27.8417C41.2418 27.7349 40.6299 27.707 40.0238 27.6434C39.6409 27.6032 39.1393 27.5801 39.0545 27.1038C38.9834 26.7046 39.3202 26.3868 39.7004 26.3663C39.8034 26.3602 39.9073 26.3651 40.011 26.3654C45.3721 26.5157 39.9073 26.3651 40.011 26.3654Z" fill="white"/>
<path d="M48.1581 36.9273C48.1491 36.9944 48.1446 37.1517 48.1052 37.2998C47.9631 37.838 47.1468 37.9053 46.9591 37.3623C46.9034 37.2013 46.8951 37.0178 46.8948 36.8444C46.8929 35.7091 46.6462 34.5747 46.0735 33.5867C45.4849 32.5713 44.5856 31.718 43.531 31.2013C42.8932 30.8891 42.2037 30.6948 41.5046 30.5794C41.1991 30.5288 40.8904 30.4983 40.5834 30.4555C40.2113 30.4038 40.0126 30.1667 40.0304 29.8002C40.0468 29.4567 40.2979 29.2094 40.6723 29.2308C41.9024 29.3005 43.0909 29.5667 44.1848 30.1458C46.4088 31.3238 47.6795 33.1828 48.0504 35.6655C48.0671 35.7781 48.094 35.8894 48.1026 36.0022C48.1235 36.2806 48.1368 36.5595 48.1581 36.9273C48.1491 36.9941 48.1368 36.5595 48.1581 36.9273Z" fill="white"/>
<path d="M44.8237 36.7974C44.3752 36.8055 44.1352 36.5571 44.0888 36.1461C44.0568 35.8596 44.0312 35.569 43.9627 35.2899C43.828 34.7404 43.536 34.2313 43.0738 33.8946C42.8557 33.7357 42.6084 33.6199 42.3494 33.5449C42.0205 33.4497 41.6787 33.476 41.3507 33.3957C40.9943 33.3083 40.7971 33.0196 40.8532 32.6854C40.9041 32.381 41.2001 32.1435 41.5327 32.1677C43.6112 32.3177 45.0966 33.3922 45.3087 35.8391C45.3238 36.0118 45.3413 36.1941 45.303 36.3596C45.2371 36.6419 45.0277 36.7836 44.8237 36.7974C44.3751 36.8054 45.0277 36.7836 44.8237 36.7974Z" fill="white"/>
<path d="M61.1605 28.6307L61.1474 28.5779C60.5483 26.1559 58.7705 23.6349 56.5446 21.7168L53.5354 24.3837C55.3247 25.8095 56.8579 27.7846 57.2935 29.5055C58.4841 34.9598 58.4841 40.4887 57.2935 45.943C56.5799 48.762 52.9213 52.2663 50.0146 52.9138C46.2091 53.6376 42.3733 53.9468 38.5415 53.8407C38.4652 53.8385 38.3919 53.8682 38.339 53.9229C37.7951 54.481 34.771 57.5857 34.771 57.5857L30.976 61.4807C30.6985 61.7701 30.211 61.5734 30.211 61.1738V53.1838C30.211 53.0518 30.1168 52.9398 29.9871 52.9141C29.9863 52.9141 29.9857 52.9138 29.9849 52.9138C28.3329 52.5459 26.4393 51.2548 24.9805 49.6918L22.0071 52.3266C23.8641 54.3468 26.2593 55.9799 28.5958 56.6471V61.4702C28.5958 63.216 30.7232 64.0734 31.9329 62.8135L36.8196 57.734C37.8796 57.7932 38.9397 57.8263 40.0002 57.8263C43.6029 57.8263 47.2072 57.4855 50.785 56.803L50.8349 56.7929C55.2599 55.8284 60.0783 51.1921 61.1471 46.8713L61.1602 46.8185C62.4816 40.784 62.4816 34.6649 61.1605 28.6307Z" fill="#D1D1D1"/>
<path d="M46.3235 49.631C46.7119 49.5114 45.8766 49.4953 46.3235 49.631V49.631Z" fill="white"/>
<path d="M49.6751 44.5274C49.0887 44.011 48.4554 43.5677 47.8198 43.1146C47.172 42.6529 46.5204 42.1963 45.8481 41.7707C45.1761 41.3454 44.3787 41.3521 43.7546 41.8623C43.1162 42.3843 42.8214 43.3837 41.9103 43.4901C41.3664 43.5534 40.8921 43.3246 40.42 43.1284C38.6045 42.373 37.227 41.218 36.1859 39.7598L33.9734 41.7207C34.0485 41.8077 34.1203 41.8971 34.1967 41.983C37.1845 45.3457 40.9565 47.5395 45.0548 49.2399C45.4503 49.404 45.8764 49.4952 46.3232 49.6307C45.8764 49.4949 46.712 49.5112 46.3232 49.6307C46.712 49.5112 47.1232 49.451 47.4681 49.2663C48.6886 48.6107 49.5343 47.5838 50.1156 46.3495C50.4334 45.6757 50.2392 45.0241 49.6751 44.5274Z" fill="#D1D1D1"/>
<path d="M40.0255 26.3659C40.0208 26.3659 40.0162 26.3654 40.0114 26.3654C40.0069 26.365 40.0127 26.3654 40.0255 26.3659Z" fill="white"/>
<path d="M40.0122 26.3652C40.0167 26.3652 40.0211 26.3657 40.0256 26.3657C40.3231 26.3763 45.1619 26.5096 40.0122 26.3652Z" fill="white"/>
<path d="M47.7007 29.5547L46.7574 30.3908C48.2398 31.833 49.262 33.7444 49.5542 35.8478C49.6592 36.6044 49.6978 37.3705 49.7529 38.1333C49.7809 38.5188 49.974 38.8783 50.404 38.8733C50.8201 38.8681 51.0384 38.502 51.0082 38.1164C50.9365 37.1998 50.8795 36.2764 50.7187 35.3734C50.3057 33.0534 49.2296 31.0673 47.7007 29.5547Z" fill="#D1D1D1"/>
<path d="M48.0501 35.6639C47.7799 33.8548 47.0295 32.3786 45.7829 31.2539L44.8423 32.0875C45.3287 32.5192 45.7495 33.0262 46.0735 33.5855C46.6462 34.5734 46.8929 35.7078 46.8948 36.8431C46.8951 37.0166 46.9034 37.2 46.9592 37.3614C47.1471 37.9047 47.9631 37.8373 48.1053 37.2989C48.1446 37.1505 48.1492 36.9931 48.1581 36.9264C48.1492 36.9934 48.1365 36.5588 48.1581 36.9264C48.1365 36.5588 48.1234 36.2797 48.1023 36.0009C48.094 35.8877 48.067 35.7764 48.0501 35.6639Z" fill="#D1D1D1"/>
<path d="M48.1581 36.927C48.1369 36.5592 48.1492 36.9937 48.1581 36.927V36.927Z" fill="white"/>
<path d="M44.8237 36.7968C44.8307 36.7964 44.8374 36.7928 44.8442 36.792C44.8253 36.792 44.7962 36.7925 44.7664 36.7936C44.7857 36.794 44.8034 36.797 44.8237 36.7968Z" fill="white"/>
<path d="M44.8237 36.7982C44.8036 36.7985 44.7857 36.7955 44.7664 36.7949C44.6693 36.7976 44.5692 36.8027 44.8237 36.7982Z" fill="white"/>
<path d="M44.8442 36.792C44.8372 36.7928 44.8304 36.7964 44.8237 36.7968C44.8762 36.7932 44.8717 36.792 44.8442 36.792Z" fill="white"/>
<path d="M43.8772 32.9434L42.9197 33.7921C42.9725 33.8241 43.0242 33.8576 43.0744 33.894C43.5366 34.2307 43.8286 34.7398 43.9633 35.2893C44.0317 35.5684 44.057 35.8587 44.0894 36.1455C44.1336 36.5382 44.3566 36.7796 44.7669 36.7937C44.7967 36.7929 44.8261 36.7923 44.8447 36.7921C45.0422 36.7702 45.2402 36.6318 45.3034 36.3587C45.3417 36.1935 45.3242 36.0109 45.3091 35.8382C45.19 34.4702 44.6728 33.5316 43.8772 32.9434Z" fill="#D1D1D1"/>
</g>
<defs>
<clipPath id="clip0">
<rect width="80" height="80" fill="white" transform="translate(0 0.517578)"/>
</clipPath>
</defs>
</svg>
